<svg width="200" height="200" viewBox="0 0 200 200" stroke="#5a0c25" fill="none" stroke-width="2.5" stroke-linecap="round" stroke-linejoin="round"  xmlns="http://www.w3.org/2000/svg">
    <path fill="#674188" stroke="none" transform="translate(-10,-10)" d="M102.579 44.834c-34.696 17.432-33.403 3.518-49.75 0C55.043 62.863 47.496 78.954 35 91.5c23.44 10.761 28.065 31.502 25.01 52.76 13.65-7.923 15.795 8.795 30.59 10.721 6.394.832 27.514-25.621 43.339-10.721-.686-16.482 7.51-37.983 31.891-50.76-19.728-9.941-22.303-27.88-13.501-48.666-19.069 18.602-30.009 16.195-49.75 0Z"/>
    <path d="M102.579 44.834c-34.696 17.432-33.403 3.518-49.75 0C55.043 62.863 47.496 78.954 35 91.5c23.44 10.761 28.065 31.502 25.01 52.76 13.65-7.923 15.795 8.795 30.59 10.721 6.394.832 27.514-25.621 43.339-10.721-.686-16.482 7.51-37.983 31.891-50.76-19.728-9.941-22.303-27.88-13.501-48.666-19.069 18.602-30.009 16.195-49.75 0Z"/>
</svg>