<svg width="200" height="200" viewBox="0 0 200 200" stroke="#5a0c25" fill="none" stroke-width="2.5" stroke-linecap="round" stroke-linejoin="round"  xmlns="http://www.w3.org/2000/svg">
    <path fill="#674188" stroke="none" transform="translate(-10,-10)" d="m70.062 98.54-.352-.767m0 0C48.693 84.578 44.373 73.843 47.715 49.76c23.376 3.958 34.468 8.647 42.767 31.111-.716-18.425 6.36-25.968 25.815-36.872 10.272 15.942 10.455 25.635 1.541 44.17 17.308-13.676 27.777-15.382 48.162-5.378-15.1 23.283-25.566 28.69-46.621 29.191l24.274 38.792-43.924-32.647L63.897 155l14.641-36.872L35 120.433l34.71-22.66Z"/><path d="m70.062 98.54-.352-.767m0 0C48.693 84.578 44.373 73.843 47.715 49.76c23.376 3.958 34.468 8.647 42.767 31.111-.716-18.425 6.36-25.968 25.815-36.872 10.272 15.942 10.455 25.635 1.541 44.17 17.308-13.676 27.777-15.382 48.162-5.378-15.1 23.283-25.566 28.69-46.621 29.191l24.274 38.792-43.924-32.647L63.897 155l14.641-36.872L35 120.433l34.71-22.66Z"/>
</svg>