<svg width="1334" height="418" viewBox="0 0 1334 418" fill="none" xmlns="http://www.w3.org/2000/svg">
<g clip-path="url(#clip0_138_52)">
<rect width="1334" height="418" fill="white"/>
<g clip-path="url(#clip1_138_52)">
<path d="M-10 184L101.167 164.5C212.333 145 434.667 106 657 99.5764C879.333 92.2352 1101.67 119.765 1324 138.576C1546.33 158.765 1768.67 170.235 1991 170.923C2213.33 170.235 2435.67 158.765 2658 145C2880.33 131.235 3102.67 119.765 3325 125.5C3547.33 131.235 3769.67 158.765 3992 197.076C4214.33 236.765 4436.67 287.235 4659 281.5C4881.33 275.765 5103.67 209.235 5326 209.923C5548.33 209.235 5770.67 275.765 5993 301C6215.33 326.235 6437.67 314.765 6660 301C6882.33 287.235 7104.67 275.765 7327 275.076C7549.33 275.765 7771.67 287.235 7994 262C8216.33 236.765 8438.67 170.235 8661 177.576C8883.33 184 9105.67 262 9328 255.576C9550.33 248.235 9772.67 158.765 9995 158.076C10217.3 158.765 10439.7 248.235 10662 255.576C10884.3 262 11106.7 184 11329 184C11551.3 184 11773.7 262 11996 275.076C12218.3 287.235 12440.7 236.765 12663 236.076C12885.3 236.765 13107.7 287.235 13330 320.5C13552.3 353.765 13774.7 365.235 13997 340C14219.3 314.765 14441.7 248.235 14664 197.076C14886.3 145 15108.7 106 15331 131.923C15553.3 158.765 15775.7 248.235 15886.8 294.576L15998 340V418H15886.8C15775.7 418 15553.3 418 15331 418C15108.7 418 14886.3 418 14664 418C14441.7 418 14219.3 418 13997 418C13774.7 418 13552.3 418 13330 418C13107.7 418 12885.3 418 12663 418C12440.7 418 12218.3 418 11996 418C11773.7 418 11551.3 418 11329 418C11106.7 418 10884.3 418 10662 418C10439.7 418 10217.3 418 9995 418C9772.67 418 9550.33 418 9328 418C9105.67 418 8883.33 418 8661 418C8438.67 418 8216.33 418 7994 418C7771.67 418 7549.33 418 7327 418C7104.67 418 6882.33 418 6660 418C6437.67 418 6215.33 418 5993 418C5770.67 418 5548.33 418 5326 418C5103.67 418 4881.33 418 4659 418C4436.67 418 4214.33 418 3992 418C3769.67 418 3547.33 418 3325 418C3102.67 418 2880.33 418 2658 418C2435.67 418 2213.33 418 1991 418C1768.67 418 1546.33 418 1324 418C1101.67 418 879.333 418 657 418C434.667 418 212.333 418 101.167 418H-10V184Z" fill="url(#paint0_linear_138_52)"/>
</g>
<g clip-path="url(#clip2_138_52)">
<path d="M416.172 39.2656C417.234 39.2656 418.25 39.3672 419.219 39.5703C420.203 39.7578 421.117 40.0156 421.961 40.3438C422.805 40.6562 423.57 41.0156 424.258 41.4219C424.945 41.8281 425.531 42.2344 426.016 42.6406L432.109 38.4453L425.102 51.8984L424.562 44.8438C424.109 44.5312 423.617 44.2578 423.086 44.0234C422.57 43.7734 422.047 43.5703 421.516 43.4141C421 43.2422 420.5 43.1094 420.016 43.0156C419.531 42.9062 419.102 42.8203 418.727 42.7578C418.352 42.6953 418.047 42.6562 417.812 42.6406C417.594 42.6094 417.477 42.5938 417.461 42.5938C416.398 42.5938 415.508 42.7109 414.789 42.9453C414.07 43.1797 413.484 43.4844 413.031 43.8594C412.594 44.2344 412.273 44.6641 412.07 45.1484C411.883 45.6172 411.789 46.0938 411.789 46.5781C411.789 47.5625 411.992 48.3984 412.398 49.0859C412.805 49.7578 413.422 50.3594 414.25 50.8906C415.078 51.4219 416.133 51.9219 417.414 52.3906C418.695 52.8438 420.203 53.3359 421.938 53.8672C422.984 54.1953 423.969 54.6406 424.891 55.2031C425.828 55.75 426.641 56.3984 427.328 57.1484C428.016 57.8828 428.555 58.7109 428.945 59.6328C429.352 60.5391 429.555 61.5156 429.555 62.5625C429.555 63.7812 429.383 64.8672 429.039 65.8203C428.695 66.7578 428.234 67.5859 427.656 68.3047C427.094 69.0078 426.438 69.6094 425.688 70.1094C424.938 70.5938 424.156 70.9844 423.344 71.2812C422.547 71.5938 421.734 71.8125 420.906 71.9375C420.094 72.0781 419.328 72.1484 418.609 72.1484C416.5 72.1484 414.586 71.7891 412.867 71.0703C411.148 70.3516 409.547 69.3672 408.062 68.1172L401.969 72.2891L408.766 60.2422C408.953 61.3672 409.281 62.4531 409.75 63.5C410.234 64.5312 410.828 65.4531 411.531 66.2656C412.234 67.0781 413.047 67.7266 413.969 68.2109C414.891 68.6953 415.898 68.9375 416.992 68.9375C417.867 68.9375 418.664 68.8047 419.383 68.5391C420.117 68.2734 420.742 67.9219 421.258 67.4844C421.773 67.0312 422.172 66.5156 422.453 65.9375C422.75 65.3438 422.898 64.7266 422.898 64.0859C422.898 63.1953 422.648 62.4297 422.148 61.7891C421.648 61.1328 420.992 60.5547 420.18 60.0547C419.367 59.5391 418.438 59.0703 417.391 58.6484C416.359 58.2109 415.297 57.7656 414.203 57.3125C413.109 56.8594 412.039 56.3594 410.992 55.8125C409.961 55.2656 409.039 54.625 408.227 53.8906C407.414 53.1406 406.758 52.2656 406.258 51.2656C405.758 50.2656 405.508 49.0859 405.508 47.7266C405.508 46.6797 405.711 45.6562 406.117 44.6562C406.539 43.6406 407.18 42.7344 408.039 41.9375C408.914 41.1406 410.023 40.5 411.367 40.0156C412.711 39.5156 414.312 39.2656 416.172 39.2656ZM432.25 71.2344L435.93 68.3516L435.133 52.1797L430.797 49.3438L440.875 47.6328L439.07 66.4297L444.109 69.5703L432.25 71.2344ZM441.133 41.9609C441.133 42.4297 441.039 42.875 440.852 43.2969C440.664 43.7031 440.406 44.0703 440.078 44.3984C439.75 44.7109 439.375 44.9609 438.953 45.1484C438.531 45.3203 438.086 45.4062 437.617 45.4062C437.117 45.4062 436.648 45.3203 436.211 45.1484C435.789 44.9609 435.422 44.7109 435.109 44.3984C434.797 44.0703 434.547 43.7031 434.359 43.2969C434.172 42.875 434.078 42.4297 434.078 41.9609C434.078 41.4766 434.172 41.0312 434.359 40.625C434.547 40.2031 434.797 39.8359 435.109 39.5234C435.422 39.2109 435.789 38.9688 436.211 38.7969C436.648 38.6094 437.117 38.5156 437.617 38.5156C438.086 38.5156 438.531 38.6094 438.953 38.7969C439.375 38.9688 439.75 39.2109 440.078 39.5234C440.406 39.8359 440.664 40.2031 440.852 40.625C441.039 41.0312 441.133 41.4766 441.133 41.9609ZM446.453 60.7344C446.453 59.2656 446.602 57.8047 446.898 56.3516C447.211 54.8828 447.547 53.5391 447.906 52.3203L443.852 52.5781L455.289 40.0859C454.383 42.9453 453.648 45.5234 453.086 47.8203L462.203 48.5938L461.008 51.4062L452.172 52.0391C451.953 53.1797 451.781 54.1953 451.656 55.0859C451.547 55.9609 451.453 56.7031 451.375 57.3125C451.297 58.0312 451.242 58.6562 451.211 59.1875C451.211 60.75 451.305 62.1562 451.492 63.4062C451.68 64.6562 451.969 65.7266 452.359 66.6172C452.766 67.4922 453.273 68.1719 453.883 68.6562C454.508 69.125 455.25 69.3594 456.109 69.3594C456.906 69.3594 457.57 69.2031 458.102 68.8906C458.648 68.5625 459.086 68.1484 459.414 67.6484C459.742 67.1328 459.977 66.5625 460.117 65.9375C460.258 65.2969 460.328 64.6641 460.328 64.0391C460.328 63.4609 460.281 62.8984 460.188 62.3516C460.859 62.6953 461.367 63.25 461.711 64.0156C462.07 64.7656 462.25 65.5859 462.25 66.4766C462.25 67.3984 462.094 68.2109 461.781 68.9141C461.484 69.6172 461.07 70.2109 460.539 70.6953C460.008 71.1641 459.383 71.5234 458.664 71.7734C457.945 72.0234 457.172 72.1484 456.344 72.1484C455.844 72.1484 455.25 72.0938 454.562 71.9844C453.891 71.875 453.188 71.6719 452.453 71.375C451.719 71.0938 450.992 70.6875 450.273 70.1562C449.555 69.625 448.914 68.9375 448.352 68.0938C447.789 67.25 447.328 66.2266 446.969 65.0234C446.625 63.8047 446.453 62.375 446.453 60.7344ZM469.234 62.3984C469.438 63.2734 469.711 64.1328 470.055 64.9766C470.398 65.8047 470.82 66.5469 471.32 67.2031C471.82 67.8594 472.398 68.3906 473.055 68.7969C473.711 69.2031 474.453 69.4062 475.281 69.4062C476.375 69.4062 477.328 69.1797 478.141 68.7266C478.953 68.2734 479.617 67.7031 480.133 67.0156C480.648 66.3125 481.008 65.5469 481.211 64.7188C481.414 63.875 481.453 63.0703 481.328 62.3047C481.766 62.4766 482.125 62.7031 482.406 62.9844C482.703 63.2656 482.93 63.5781 483.086 63.9219C483.258 64.25 483.375 64.5938 483.438 64.9531C483.5 65.2969 483.531 65.6328 483.531 65.9609C483.531 66.7109 483.312 67.4375 482.875 68.1406C482.438 68.8281 481.82 69.4453 481.023 69.9922C480.242 70.5234 479.312 70.9531 478.234 71.2812C477.156 71.6094 475.977 71.7734 474.695 71.7734C472.977 71.7734 471.438 71.4375 470.078 70.7656C468.734 70.0938 467.594 69.1875 466.656 68.0469C465.719 66.8906 465 65.5391 464.5 63.9922C464 62.4453 463.75 60.7969 463.75 59.0469C463.75 57.2656 464 55.625 464.5 54.125C465 52.6094 465.734 51.3203 466.703 50.2578C467.688 49.1953 468.891 48.3906 470.312 47.8438C471.734 47.2969 473.375 47.0781 475.234 47.1875C476.516 47.2812 477.695 47.6484 478.773 48.2891C479.852 48.9297 480.789 49.7578 481.586 50.7734C482.398 51.7734 483.047 52.9219 483.531 54.2188C484.031 55.5156 484.336 56.8672 484.445 58.2734L469.234 62.3984ZM468.789 58.625C468.789 58.8438 468.789 59.0625 468.789 59.2812C468.789 59.4844 468.805 59.6953 468.836 59.9141L479.125 56.1641C478.781 55.0391 478.391 54.0781 477.953 53.2812C477.531 52.4688 477.086 51.8047 476.617 51.2891C476.148 50.7734 475.672 50.3984 475.188 50.1641C474.719 49.9141 474.266 49.7891 473.828 49.7891C473.172 49.7891 472.594 49.9141 472.094 50.1641C471.594 50.4141 471.156 50.7578 470.781 51.1953C470.422 51.6172 470.109 52.1172 469.844 52.6953C469.594 53.2734 469.391 53.8906 469.234 54.5469C469.078 55.2031 468.961 55.8828 468.883 56.5859C468.82 57.2734 468.789 57.9531 468.789 58.625ZM485.477 71.2344L488.547 67.7891L490.141 51.8984L485.195 48.3359L493.164 48.875V51.2656C493.758 50.4688 494.375 49.8516 495.016 49.4141C495.672 48.9766 496.273 48.6562 496.82 48.4531C497.461 48.2188 498.094 48.0859 498.719 48.0547C499.828 48.0547 500.836 48.2812 501.742 48.7344C502.648 49.1875 503.367 49.8125 503.898 50.6094C504.555 49.8281 505.305 49.2109 506.148 48.7578C506.992 48.2891 507.906 48.0547 508.891 48.0547C509.781 48.0547 510.609 48.2578 511.375 48.6641C512.141 49.0703 512.797 49.6406 513.344 50.375C513.906 51.1094 514.344 52.0078 514.656 53.0703C514.984 54.1172 515.148 55.2812 515.148 56.5625C515.148 57.4844 515.086 58.4453 514.961 59.4453C514.852 60.4453 514.695 61.4375 514.492 62.4219C514.305 63.4062 514.07 64.3672 513.789 65.3047C513.508 66.2266 513.203 67.0859 512.875 67.8828L516.203 69.3594L504.578 71.5391L509.711 67.4375C509.961 65.75 510.117 64.2109 510.18 62.8203C510.258 61.4141 510.297 60.2188 510.297 59.2344C510.297 56.7188 509.992 54.8906 509.383 53.75C508.789 52.6094 507.938 52.0391 506.828 52.0391C506.156 52.0391 505.484 52.2812 504.812 52.7656C504.906 53.1406 504.953 53.5391 504.953 53.9609C504.953 54.9141 504.875 55.8984 504.719 56.9141C504.578 57.9297 504.391 58.9297 504.156 59.9141C503.922 60.8984 503.656 61.8516 503.359 62.7734C503.062 63.6953 502.766 64.5312 502.469 65.2812L505.773 67.8828H496.328L499.492 65.3281C499.68 63.875 499.812 62.3906 499.891 60.875C499.969 59.3438 500.008 57.9062 500.008 56.5625C500.008 54.9688 499.82 53.7188 499.445 52.8125C499.086 51.9062 498.43 51.4531 497.477 51.4531C496.992 51.4531 496.539 51.5469 496.117 51.7344C495.711 51.9219 495.328 52.1719 494.969 52.4844C494.625 52.7969 494.297 53.1562 493.984 53.5625C493.688 53.9688 493.414 54.3906 493.164 54.8281V67.6016L497.102 70.4141L485.477 71.2344ZM518.078 71.2344L521.758 68.3516L520.961 52.1797L516.625 49.3438L526.703 47.6328L524.898 66.4297L529.938 69.5703L518.078 71.2344ZM526.961 41.9609C526.961 42.4297 526.867 42.875 526.68 43.2969C526.492 43.7031 526.234 44.0703 525.906 44.3984C525.578 44.7109 525.203 44.9609 524.781 45.1484C524.359 45.3203 523.914 45.4062 523.445 45.4062C522.945 45.4062 522.477 45.3203 522.039 45.1484C521.617 44.9609 521.25 44.7109 520.938 44.3984C520.625 44.0703 520.375 43.7031 520.188 43.2969C520 42.875 519.906 42.4297 519.906 41.9609C519.906 41.4766 520 41.0312 520.188 40.625C520.375 40.2031 520.625 39.8359 520.938 39.5234C521.25 39.2109 521.617 38.9688 522.039 38.7969C522.477 38.6094 522.945 38.5156 523.445 38.5156C523.914 38.5156 524.359 38.6094 524.781 38.7969C525.203 38.9688 525.578 39.2109 525.906 39.5234C526.234 39.8359 526.492 40.2031 526.68 40.625C526.867 41.0312 526.961 41.4766 526.961 41.9609ZM531.414 44.6094L533.828 48.6875L550.094 49.0156L538.234 67.7422L545.57 69.3125L550 64.5781L548.688 75.3125L546.766 71.6797L529.492 71.3281L544.516 52.3203L533.008 53.2812L531.414 56.4453V44.6094ZM551.828 71.2344L555.508 68.3516L554.711 52.1797L550.375 49.3438L560.453 47.6328L558.648 66.4297L563.688 69.5703L551.828 71.2344ZM560.711 41.9609C560.711 42.4297 560.617 42.875 560.43 43.2969C560.242 43.7031 559.984 44.0703 559.656 44.3984C559.328 44.7109 558.953 44.9609 558.531 45.1484C558.109 45.3203 557.664 45.4062 557.195 45.4062C556.695 45.4062 556.227 45.3203 555.789 45.1484C555.367 44.9609 555 44.7109 554.688 44.3984C554.375 44.0703 554.125 43.7031 553.938 43.2969C553.75 42.875 553.656 42.4297 553.656 41.9609C553.656 41.4766 553.75 41.0312 553.938 40.625C554.125 40.2031 554.375 39.8359 554.688 39.5234C555 39.2109 555.367 38.9688 555.789 38.7969C556.227 38.6094 556.695 38.5156 557.195 38.5156C557.664 38.5156 558.109 38.6094 558.531 38.7969C558.953 38.9688 559.328 39.2109 559.656 39.5234C559.984 39.8359 560.242 40.2031 560.43 40.625C560.617 41.0312 560.711 41.4766 560.711 41.9609ZM585.859 56.4453C585.859 57.3203 585.82 58.2422 585.742 59.2109C585.664 60.1797 585.547 61.1484 585.391 62.1172C585.234 63.0859 585.039 64.0312 584.805 64.9531C584.586 65.875 584.328 66.7188 584.031 67.4844L588.648 68.9844L576.438 71.375L580.586 68.2578C580.914 67.0547 581.133 65.8984 581.242 64.7891C581.367 63.6797 581.43 62.6328 581.43 61.6484C581.43 61.0547 581.406 60.3828 581.359 59.6328C581.328 58.8672 581.242 58.0938 581.102 57.3125C580.977 56.5312 580.789 55.7656 580.539 55.0156C580.305 54.2656 579.992 53.6016 579.602 53.0234C579.211 52.4297 578.727 51.9609 578.148 51.6172C577.586 51.2578 576.906 51.0781 576.109 51.0781C575.188 51.0781 574.25 51.3828 573.297 51.9922C572.344 52.6016 571.461 53.5 570.648 54.6875V67.6484L574.516 70.4141L562.914 71.2344L565.984 67.8359L567.625 50.7969L562.633 48.3359L570.648 47.5391V51.0781C571.102 50.4531 571.602 49.8672 572.148 49.3203C572.695 48.7734 573.273 48.3047 573.883 47.9141C574.492 47.5078 575.125 47.1953 575.781 46.9766C576.453 46.7422 577.141 46.625 577.844 46.625C579.203 46.625 580.383 46.875 581.383 47.375C582.383 47.875 583.211 48.5703 583.867 49.4609C584.539 50.3359 585.039 51.375 585.367 52.5781C585.695 53.7656 585.859 55.0547 585.859 56.4453ZM607.305 71.1875C604.852 71.1875 602.359 71 599.828 70.625L606.203 67.6953L608.359 43.4844L601.117 40.2266C602.633 39.8828 604.172 39.6172 605.734 39.4297C607.297 39.2266 608.734 39.0781 610.047 38.9844C611.562 38.875 613.039 38.8125 614.477 38.7969C615.539 38.7969 616.633 38.9219 617.758 39.1719C618.898 39.4219 620.008 39.8203 621.086 40.3672C622.164 40.8984 623.18 41.5859 624.133 42.4297C625.086 43.2734 625.914 44.2812 626.617 45.4531C627.336 46.625 627.906 47.9766 628.328 49.5078C628.75 51.0234 628.961 52.7344 628.961 54.6406C628.961 56.75 628.656 58.625 628.047 60.2656C627.438 61.9062 626.602 63.3359 625.539 64.5547C624.492 65.7734 623.266 66.8125 621.859 67.6719C620.453 68.5156 618.945 69.1953 617.336 69.7109C615.727 70.2266 614.062 70.6016 612.344 70.8359C610.641 71.0703 608.961 71.1875 607.305 71.1875ZM623.5 53.7266C623.5 52.9297 623.438 52.0781 623.312 51.1719C623.203 50.2656 623.008 49.3672 622.727 48.4766C622.445 47.5859 622.07 46.7344 621.602 45.9219C621.133 45.0938 620.547 44.3672 619.844 43.7422C619.156 43.1172 618.336 42.6172 617.383 42.2422C616.43 41.8672 615.328 41.6797 614.078 41.6797C613.422 41.6797 612.734 41.7266 612.016 41.8203V68.0703C614.141 67.7734 615.93 67.2188 617.383 66.4062C618.852 65.5938 620.039 64.5703 620.945 63.3359C621.852 62.0859 622.5 60.6562 622.891 59.0469C623.297 57.4219 623.5 55.6484 623.5 53.7266ZM637.141 62.3984C637.344 63.2734 637.617 64.1328 637.961 64.9766C638.305 65.8047 638.727 66.5469 639.227 67.2031C639.727 67.8594 640.305 68.3906 640.961 68.7969C641.617 69.2031 642.359 69.4062 643.188 69.4062C644.281 69.4062 645.234 69.1797 646.047 68.7266C646.859 68.2734 647.523 67.7031 648.039 67.0156C648.555 66.3125 648.914 65.5469 649.117 64.7188C649.32 63.875 649.359 63.0703 649.234 62.3047C649.672 62.4766 650.031 62.7031 650.312 62.9844C650.609 63.2656 650.836 63.5781 650.992 63.9219C651.164 64.25 651.281 64.5938 651.344 64.9531C651.406 65.2969 651.438 65.6328 651.438 65.9609C651.438 66.7109 651.219 67.4375 650.781 68.1406C650.344 68.8281 649.727 69.4453 648.93 69.9922C648.148 70.5234 647.219 70.9531 646.141 71.2812C645.062 71.6094 643.883 71.7734 642.602 71.7734C640.883 71.7734 639.344 71.4375 637.984 70.7656C636.641 70.0938 635.5 69.1875 634.562 68.0469C633.625 66.8906 632.906 65.5391 632.406 63.9922C631.906 62.4453 631.656 60.7969 631.656 59.0469C631.656 57.2656 631.906 55.625 632.406 54.125C632.906 52.6094 633.641 51.3203 634.609 50.2578C635.594 49.1953 636.797 48.3906 638.219 47.8438C639.641 47.2969 641.281 47.0781 643.141 47.1875C644.422 47.2812 645.602 47.6484 646.68 48.2891C647.758 48.9297 648.695 49.7578 649.492 50.7734C650.305 51.7734 650.953 52.9219 651.438 54.2188C651.938 55.5156 652.242 56.8672 652.352 58.2734L637.141 62.3984ZM636.695 58.625C636.695 58.8438 636.695 59.0625 636.695 59.2812C636.695 59.4844 636.711 59.6953 636.742 59.9141L647.031 56.1641C646.688 55.0391 646.297 54.0781 645.859 53.2812C645.438 52.4688 644.992 51.8047 644.523 51.2891C644.055 50.7734 643.578 50.3984 643.094 50.1641C642.625 49.9141 642.172 49.7891 641.734 49.7891C641.078 49.7891 640.5 49.9141 640 50.1641C639.5 50.4141 639.062 50.7578 638.688 51.1953C638.328 51.6172 638.016 52.1172 637.75 52.6953C637.5 53.2734 637.297 53.8906 637.141 54.5469C636.984 55.2031 636.867 55.8828 636.789 56.5859C636.727 57.2734 636.695 57.9531 636.695 58.625ZM663.883 47.1406C664.477 47.1406 665.078 47.1953 665.688 47.3047C666.297 47.3984 666.891 47.5469 667.469 47.75C668.062 47.9375 668.617 48.1719 669.133 48.4531C669.664 48.7188 670.141 49.0156 670.562 49.3438L674.406 44.6094L672.672 56.3047C672.484 55.4922 672.156 54.6953 671.688 53.9141C671.219 53.1172 670.633 52.4062 669.93 51.7812C669.242 51.1562 668.445 50.6562 667.539 50.2812C666.633 49.8906 665.641 49.6953 664.562 49.6953C663.969 49.6953 663.398 49.7656 662.852 49.9062C662.305 50.0312 661.82 50.2422 661.398 50.5391C660.992 50.8359 660.664 51.2109 660.414 51.6641C660.18 52.1172 660.062 52.6562 660.062 53.2812C660.062 54.0312 660.266 54.6406 660.672 55.1094C661.094 55.5781 661.641 55.9766 662.312 56.3047C662.984 56.6172 663.75 56.8906 664.609 57.125C665.469 57.3438 666.352 57.5781 667.258 57.8281C668.164 58.0781 669.047 58.375 669.906 58.7188C670.766 59.0469 671.531 59.4766 672.203 60.0078C672.875 60.5391 673.414 61.2031 673.82 62C674.242 62.7812 674.453 63.75 674.453 64.9062C674.453 66.2031 674.195 67.3125 673.68 68.2344C673.18 69.1406 672.531 69.8906 671.734 70.4844C670.938 71.0625 670.055 71.4844 669.086 71.75C668.117 72.0156 667.172 72.1484 666.25 72.1484C665.5 72.1484 664.75 72.0703 664 71.9141C663.25 71.7578 662.523 71.5391 661.82 71.2578C661.117 70.9766 660.445 70.6406 659.805 70.25C659.18 69.8594 658.609 69.4375 658.094 68.9844L654.531 73.7422L655.633 62.1172C656.133 63.1797 656.734 64.1719 657.438 65.0938C658.141 66.0156 658.922 66.8203 659.781 67.5078C660.641 68.1797 661.562 68.7109 662.547 69.1016C663.531 69.4766 664.555 69.6641 665.617 69.6641C666.852 69.6641 667.836 69.4062 668.57 68.8906C669.32 68.3594 669.695 67.6094 669.695 66.6406C669.695 66.0156 669.484 65.5 669.062 65.0938C668.656 64.6719 668.109 64.3047 667.422 63.9922C666.75 63.6797 665.984 63.3984 665.125 63.1484C664.266 62.8984 663.383 62.625 662.477 62.3281C661.57 62.0312 660.688 61.6875 659.828 61.2969C658.969 60.8906 658.195 60.3906 657.508 59.7969C656.836 59.1875 656.289 58.4531 655.867 57.5938C655.461 56.7188 655.258 55.6641 655.258 54.4297C655.258 53.3672 655.414 52.4453 655.727 51.6641C656.039 50.8828 656.445 50.2266 656.945 49.6953C657.461 49.1484 658.031 48.7109 658.656 48.3828C659.297 48.0391 659.938 47.7812 660.578 47.6094C661.219 47.4219 661.828 47.2969 662.406 47.2344C662.984 47.1719 663.477 47.1406 663.883 47.1406ZM678.719 60.7344C678.719 59.2656 678.867 57.8047 679.164 56.3516C679.477 54.8828 679.812 53.5391 680.172 52.3203L676.117 52.5781L687.555 40.0859C686.648 42.9453 685.914 45.5234 685.352 47.8203L694.469 48.5938L693.273 51.4062L684.438 52.0391C684.219 53.1797 684.047 54.1953 683.922 55.0859C683.812 55.9609 683.719 56.7031 683.641 57.3125C683.562 58.0312 683.508 58.6562 683.477 59.1875C683.477 60.75 683.57 62.1562 683.758 63.4062C683.945 64.6562 684.234 65.7266 684.625 66.6172C685.031 67.4922 685.539 68.1719 686.148 68.6562C686.773 69.125 687.516 69.3594 688.375 69.3594C689.172 69.3594 689.836 69.2031 690.367 68.8906C690.914 68.5625 691.352 68.1484 691.68 67.6484C692.008 67.1328 692.242 66.5625 692.383 65.9375C692.523 65.2969 692.594 64.6641 692.594 64.0391C692.594 63.4609 692.547 62.8984 692.453 62.3516C693.125 62.6953 693.633 63.25 693.977 64.0156C694.336 64.7656 694.516 65.5859 694.516 66.4766C694.516 67.3984 694.359 68.2109 694.047 68.9141C693.75 69.6172 693.336 70.2109 692.805 70.6953C692.273 71.1641 691.648 71.5234 690.93 71.7734C690.211 72.0234 689.438 72.1484 688.609 72.1484C688.109 72.1484 687.516 72.0938 686.828 71.9844C686.156 71.875 685.453 71.6719 684.719 71.375C683.984 71.0938 683.258 70.6875 682.539 70.1562C681.82 69.625 681.18 68.9375 680.617 68.0938C680.055 67.25 679.594 66.2266 679.234 65.0234C678.891 63.8047 678.719 62.375 678.719 60.7344ZM701.5 62.3984C701.703 63.2734 701.977 64.1328 702.32 64.9766C702.664 65.8047 703.086 66.5469 703.586 67.2031C704.086 67.8594 704.664 68.3906 705.32 68.7969C705.977 69.2031 706.719 69.4062 707.547 69.4062C708.641 69.4062 709.594 69.1797 710.406 68.7266C711.219 68.2734 711.883 67.7031 712.398 67.0156C712.914 66.3125 713.273 65.5469 713.477 64.7188C713.68 63.875 713.719 63.0703 713.594 62.3047C714.031 62.4766 714.391 62.7031 714.672 62.9844C714.969 63.2656 715.195 63.5781 715.352 63.9219C715.523 64.25 715.641 64.5938 715.703 64.9531C715.766 65.2969 715.797 65.6328 715.797 65.9609C715.797 66.7109 715.578 67.4375 715.141 68.1406C714.703 68.8281 714.086 69.4453 713.289 69.9922C712.508 70.5234 711.578 70.9531 710.5 71.2812C709.422 71.6094 708.242 71.7734 706.961 71.7734C705.242 71.7734 703.703 71.4375 702.344 70.7656C701 70.0938 699.859 69.1875 698.922 68.0469C697.984 66.8906 697.266 65.5391 696.766 63.9922C696.266 62.4453 696.016 60.7969 696.016 59.0469C696.016 57.2656 696.266 55.625 696.766 54.125C697.266 52.6094 698 51.3203 698.969 50.2578C699.953 49.1953 701.156 48.3906 702.578 47.8438C704 47.2969 705.641 47.0781 707.5 47.1875C708.781 47.2812 709.961 47.6484 711.039 48.2891C712.117 48.9297 713.055 49.7578 713.852 50.7734C714.664 51.7734 715.312 52.9219 715.797 54.2188C716.297 55.5156 716.602 56.8672 716.711 58.2734L701.5 62.3984ZM701.055 58.625C701.055 58.8438 701.055 59.0625 701.055 59.2812C701.055 59.4844 701.07 59.6953 701.102 59.9141L711.391 56.1641C711.047 55.0391 710.656 54.0781 710.219 53.2812C709.797 52.4688 709.352 51.8047 708.883 51.2891C708.414 50.7734 707.938 50.3984 707.453 50.1641C706.984 49.9141 706.531 49.7891 706.094 49.7891C705.438 49.7891 704.859 49.9141 704.359 50.1641C703.859 50.4141 703.422 50.7578 703.047 51.1953C702.688 51.6172 702.375 52.1172 702.109 52.6953C701.859 53.2734 701.656 53.8906 701.5 54.5469C701.344 55.2031 701.227 55.8828 701.148 56.5859C701.086 57.2734 701.055 57.9531 701.055 58.625ZM741.695 50.1641L736.844 51.8516L726.859 61.3438C727.484 62.1094 728.086 62.7656 728.664 63.3125C729.242 63.8594 729.789 64.3281 730.305 64.7188C730.82 65.1094 731.297 65.4219 731.734 65.6562C732.188 65.8906 732.602 66.0703 732.977 66.1953C733.836 66.4922 734.617 66.5859 735.32 66.4766C735.82 66.4453 736.359 66.2891 736.938 66.0078C737.438 65.7734 738.008 65.3984 738.648 64.8828C739.305 64.3672 740 63.625 740.734 62.6562C740.453 64.3906 740.039 65.8359 739.492 66.9922C738.961 68.1328 738.398 69.0469 737.805 69.7344C737.211 70.4062 736.641 70.8828 736.094 71.1641C735.562 71.4453 735.156 71.5859 734.875 71.5859C734.062 71.4609 733.164 71.0938 732.18 70.4844C731.758 70.2344 731.289 69.9141 730.773 69.5234C730.273 69.1328 729.734 68.6641 729.156 68.1172C728.594 67.5703 727.992 66.9297 727.352 66.1953C726.711 65.4453 726.055 64.5859 725.383 63.6172L725.43 68.1172L728.547 70.7188H716.828L720.438 67.7891L722.102 41.6797L716.875 39.0781L725.172 37.6953L725.336 58.9062L731.898 50.5156L729.203 47.5391L741.695 50.1641ZM747.391 68.0703L752.078 69.9453L740.336 71.0938L744.555 67.7891L743.828 42.4766L738.414 40.1328L750.273 38.5625L747.391 68.0703ZM758.734 62.3984C758.938 63.2734 759.211 64.1328 759.555 64.9766C759.898 65.8047 760.32 66.5469 760.82 67.2031C761.32 67.8594 761.898 68.3906 762.555 68.7969C763.211 69.2031 763.953 69.4062 764.781 69.4062C765.875 69.4062 766.828 69.1797 767.641 68.7266C768.453 68.2734 769.117 67.7031 769.633 67.0156C770.148 66.3125 770.508 65.5469 770.711 64.7188C770.914 63.875 770.953 63.0703 770.828 62.3047C771.266 62.4766 771.625 62.7031 771.906 62.9844C772.203 63.2656 772.43 63.5781 772.586 63.9219C772.758 64.25 772.875 64.5938 772.938 64.9531C773 65.2969 773.031 65.6328 773.031 65.9609C773.031 66.7109 772.812 67.4375 772.375 68.1406C771.938 68.8281 771.32 69.4453 770.523 69.9922C769.742 70.5234 768.812 70.9531 767.734 71.2812C766.656 71.6094 765.477 71.7734 764.195 71.7734C762.477 71.7734 760.938 71.4375 759.578 70.7656C758.234 70.0938 757.094 69.1875 756.156 68.0469C755.219 66.8906 754.5 65.5391 754 63.9922C753.5 62.4453 753.25 60.7969 753.25 59.0469C753.25 57.2656 753.5 55.625 754 54.125C754.5 52.6094 755.234 51.3203 756.203 50.2578C757.188 49.1953 758.391 48.3906 759.812 47.8438C761.234 47.2969 762.875 47.0781 764.734 47.1875C766.016 47.2812 767.195 47.6484 768.273 48.2891C769.352 48.9297 770.289 49.7578 771.086 50.7734C771.898 51.7734 772.547 52.9219 773.031 54.2188C773.531 55.5156 773.836 56.8672 773.945 58.2734L758.734 62.3984ZM758.289 58.625C758.289 58.8438 758.289 59.0625 758.289 59.2812C758.289 59.4844 758.305 59.6953 758.336 59.9141L768.625 56.1641C768.281 55.0391 767.891 54.0781 767.453 53.2812C767.031 52.4688 766.586 51.8047 766.117 51.2891C765.648 50.7734 765.172 50.3984 764.688 50.1641C764.219 49.9141 763.766 49.7891 763.328 49.7891C762.672 49.7891 762.094 49.9141 761.594 50.1641C761.094 50.4141 760.656 50.7578 760.281 51.1953C759.922 51.6172 759.609 52.1172 759.344 52.6953C759.094 53.2734 758.891 53.8906 758.734 54.5469C758.578 55.2031 758.461 55.8828 758.383 56.5859C758.32 57.2734 758.289 57.9531 758.289 58.625ZM795.531 50.5156C795.688 51.7969 795.805 53.1875 795.883 54.6875C795.977 56.1875 796.008 57.7266 795.977 59.3047C795.945 60.8828 795.844 62.4688 795.672 64.0625C795.5 65.6406 795.227 67.1641 794.852 68.6328C794.477 70.0859 793.992 71.4453 793.398 72.7109C792.805 73.9766 792.07 75.0703 791.195 75.9922C790.336 76.9297 789.32 77.6641 788.148 78.1953C786.992 78.7422 785.656 79.0156 784.141 79.0156C782.422 79.0156 780.586 78.5859 778.633 77.7266L776.898 81.1719L774.508 71.9609C775.211 72.8828 775.93 73.625 776.664 74.1875C777.414 74.75 778.125 75.1797 778.797 75.4766C779.484 75.7891 780.109 75.9922 780.672 76.0859C781.25 76.1797 781.719 76.2266 782.078 76.2266C783.359 76.2266 784.5 75.8203 785.5 75.0078C786.516 74.2109 787.406 73.1016 788.172 71.6797C786.922 70.3672 785.703 68.9453 784.516 67.4141C783.344 65.8672 782.281 64.2266 781.328 62.4922C780.375 60.7422 779.57 58.9062 778.914 56.9844C778.273 55.0625 777.859 53.0625 777.672 50.9844L773.828 48.9219L784.68 47.375L782.664 50.1172C783.07 53.2578 783.852 56.3438 785.008 59.375C786.164 62.4062 787.672 65.4844 789.531 68.6094C789.938 67.4375 790.289 66.1719 790.586 64.8125C790.898 63.4531 791.156 62.0156 791.359 60.5C791.578 58.9844 791.742 57.4141 791.852 55.7891C791.961 54.1484 792.031 52.4844 792.062 50.7969L788.57 47.375C789.867 47.4688 791.008 47.5547 791.992 47.6328C792.992 47.7109 793.859 47.7812 794.594 47.8438C795.328 47.8906 795.945 47.9375 796.445 47.9844C796.961 48.0156 797.383 48.0391 797.711 48.0547C798.477 48.1172 798.93 48.1484 799.07 48.1484L795.531 50.5156ZM800.031 71.2344L803.711 68.3516L802.914 52.1797L798.578 49.3438L808.656 47.6328L806.852 66.4297L811.891 69.5703L800.031 71.2344ZM808.914 41.9609C808.914 42.4297 808.82 42.875 808.633 43.2969C808.445 43.7031 808.188 44.0703 807.859 44.3984C807.531 44.7109 807.156 44.9609 806.734 45.1484C806.312 45.3203 805.867 45.4062 805.398 45.4062C804.898 45.4062 804.43 45.3203 803.992 45.1484C803.57 44.9609 803.203 44.7109 802.891 44.3984C802.578 44.0703 802.328 43.7031 802.141 43.2969C801.953 42.875 801.859 42.4297 801.859 41.9609C801.859 41.4766 801.953 41.0312 802.141 40.625C802.328 40.2031 802.578 39.8359 802.891 39.5234C803.203 39.2109 803.57 38.9688 803.992 38.7969C804.43 38.6094 804.898 38.5156 805.398 38.5156C805.867 38.5156 806.312 38.6094 806.734 38.7969C807.156 38.9688 807.531 39.2109 807.859 39.5234C808.188 39.8359 808.445 40.2031 808.633 40.625C808.82 41.0312 808.914 41.4766 808.914 41.9609ZM823.727 47.5859C825.039 47.5859 826.227 47.875 827.289 48.4531C828.367 49.0156 829.234 49.7812 829.891 50.75L834.625 45.9453L830.734 58.625C830.594 57.3125 830.375 56.2031 830.078 55.2969C829.781 54.375 829.438 53.6172 829.047 53.0234C828.672 52.4141 828.273 51.9453 827.852 51.6172C827.445 51.2891 827.062 51.0469 826.703 50.8906C826.359 50.7344 826.055 50.6406 825.789 50.6094C825.539 50.5781 825.383 50.5625 825.32 50.5625C824.195 50.5625 823.18 50.7812 822.273 51.2188C821.367 51.6562 820.586 52.2969 819.93 53.1406C819.289 53.9844 818.797 55.0234 818.453 56.2578C818.109 57.4766 817.938 58.8672 817.938 60.4297C817.938 61.9297 818.117 63.2578 818.477 64.4141C818.836 65.5547 819.312 66.5156 819.906 67.2969C820.5 68.0781 821.18 68.6719 821.945 69.0781C822.711 69.4688 823.5 69.6641 824.312 69.6641C825.266 69.6641 826.148 69.4531 826.961 69.0312C827.773 68.5938 828.469 68.0234 829.047 67.3203C829.625 66.6172 830.055 65.8125 830.336 64.9062C830.633 63.9844 830.734 63.0391 830.641 62.0703C830.828 62.2422 831.023 62.4531 831.227 62.7031C831.445 62.9531 831.641 63.2344 831.812 63.5469C832 63.8438 832.148 64.1719 832.258 64.5312C832.367 64.875 832.422 65.2266 832.422 65.5859C832.422 66.6484 832.164 67.6094 831.648 68.4688C831.148 69.3125 830.5 70.0312 829.703 70.625C828.906 71.2188 828.008 71.6719 827.008 71.9844C826.008 72.3125 825.016 72.4766 824.031 72.4766C823.609 72.4766 823.031 72.4297 822.297 72.3359C821.578 72.2422 820.789 72.0469 819.93 71.75C819.086 71.4688 818.227 71.0547 817.352 70.5078C816.477 69.9609 815.68 69.2344 814.961 68.3281C814.258 67.4219 813.68 66.3047 813.227 64.9766C812.773 63.6484 812.547 62.0547 812.547 60.1953C812.547 58.5391 812.734 57.0781 813.109 55.8125C813.5 54.5312 814.008 53.4219 814.633 52.4844C815.273 51.5469 815.992 50.7656 816.789 50.1406C817.586 49.5156 818.398 49.0156 819.227 48.6406C820.055 48.2656 820.859 48 821.641 47.8438C822.438 47.6719 823.133 47.5859 823.727 47.5859ZM835.188 71.2344L838.867 68.3516L838.07 52.1797L833.734 49.3438L843.812 47.6328L842.008 66.4297L847.047 69.5703L835.188 71.2344ZM844.07 41.9609C844.07 42.4297 843.977 42.875 843.789 43.2969C843.602 43.7031 843.344 44.0703 843.016 44.3984C842.688 44.7109 842.312 44.9609 841.891 45.1484C841.469 45.3203 841.023 45.4062 840.555 45.4062C840.055 45.4062 839.586 45.3203 839.148 45.1484C838.727 44.9609 838.359 44.7109 838.047 44.3984C837.734 44.0703 837.484 43.7031 837.297 43.2969C837.109 42.875 837.016 42.4297 837.016 41.9609C837.016 41.4766 837.109 41.0312 837.297 40.625C837.484 40.2031 837.734 39.8359 838.047 39.5234C838.359 39.2109 838.727 38.9688 839.148 38.7969C839.586 38.6094 840.055 38.5156 840.555 38.5156C841.023 38.5156 841.469 38.6094 841.891 38.7969C842.312 38.9688 842.688 39.2109 843.016 39.5234C843.344 39.8359 843.602 40.2031 843.789 40.625C843.977 41.0312 844.07 41.4766 844.07 41.9609ZM853.141 68.0703L857.828 69.9453L846.086 71.0938L850.305 67.7891L849.578 42.4766L844.164 40.1328L856.023 38.5625L853.141 68.0703ZM864.484 62.3984C864.688 63.2734 864.961 64.1328 865.305 64.9766C865.648 65.8047 866.07 66.5469 866.57 67.2031C867.07 67.8594 867.648 68.3906 868.305 68.7969C868.961 69.2031 869.703 69.4062 870.531 69.4062C871.625 69.4062 872.578 69.1797 873.391 68.7266C874.203 68.2734 874.867 67.7031 875.383 67.0156C875.898 66.3125 876.258 65.5469 876.461 64.7188C876.664 63.875 876.703 63.0703 876.578 62.3047C877.016 62.4766 877.375 62.7031 877.656 62.9844C877.953 63.2656 878.18 63.5781 878.336 63.9219C878.508 64.25 878.625 64.5938 878.688 64.9531C878.75 65.2969 878.781 65.6328 878.781 65.9609C878.781 66.7109 878.562 67.4375 878.125 68.1406C877.688 68.8281 877.07 69.4453 876.273 69.9922C875.492 70.5234 874.562 70.9531 873.484 71.2812C872.406 71.6094 871.227 71.7734 869.945 71.7734C868.227 71.7734 866.688 71.4375 865.328 70.7656C863.984 70.0938 862.844 69.1875 861.906 68.0469C860.969 66.8906 860.25 65.5391 859.75 63.9922C859.25 62.4453 859 60.7969 859 59.0469C859 57.2656 859.25 55.625 859.75 54.125C860.25 52.6094 860.984 51.3203 861.953 50.2578C862.938 49.1953 864.141 48.3906 865.562 47.8438C866.984 47.2969 868.625 47.0781 870.484 47.1875C871.766 47.2812 872.945 47.6484 874.023 48.2891C875.102 48.9297 876.039 49.7578 876.836 50.7734C877.648 51.7734 878.297 52.9219 878.781 54.2188C879.281 55.5156 879.586 56.8672 879.695 58.2734L864.484 62.3984ZM864.039 58.625C864.039 58.8438 864.039 59.0625 864.039 59.2812C864.039 59.4844 864.055 59.6953 864.086 59.9141L874.375 56.1641C874.031 55.0391 873.641 54.0781 873.203 53.2812C872.781 52.4688 872.336 51.8047 871.867 51.2891C871.398 50.7734 870.922 50.3984 870.438 50.1641C869.969 49.9141 869.516 49.7891 869.078 49.7891C868.422 49.7891 867.844 49.9141 867.344 50.1641C866.844 50.4141 866.406 50.7578 866.031 51.1953C865.672 51.6172 865.359 52.1172 865.094 52.6953C864.844 53.2734 864.641 53.8906 864.484 54.5469C864.328 55.2031 864.211 55.8828 864.133 56.5859C864.07 57.2734 864.039 57.9531 864.039 58.625ZM898.352 55.0156C898.211 54.4375 898.008 53.9453 897.742 53.5391C897.492 53.1328 897.203 52.7969 896.875 52.5312C896.562 52.25 896.227 52.0391 895.867 51.8984C895.508 51.7422 895.148 51.625 894.789 51.5469C893.945 51.375 893.047 51.3828 892.094 51.5703C891.766 51.6797 891.414 51.8516 891.039 52.0859C890.711 52.3047 890.336 52.6016 889.914 52.9766C889.492 53.3359 889.039 53.8203 888.555 54.4297L888.977 68.0234L893.195 70.1328L880.773 71.2344L883.984 67.9766L885.297 51.6641L880.305 49.3906L888.367 47.8672L888.461 50.7969C889.008 50.1406 889.57 49.6016 890.148 49.1797C890.727 48.7578 891.25 48.4141 891.719 48.1484C892.266 47.8516 892.797 47.625 893.312 47.4688C894.25 47.25 895.203 47.1641 896.172 47.2109C896.578 47.2266 897 47.2734 897.438 47.3516C897.891 47.4297 898.344 47.5547 898.797 47.7266C899.266 47.8828 899.719 48.1016 900.156 48.3828C900.594 48.6484 901.016 48.9844 901.422 49.3906L898.352 55.0156ZM901.469 71.2344L905.148 68.3516L904.352 52.1797L900.016 49.3438L910.094 47.6328L908.289 66.4297L913.328 69.5703L901.469 71.2344ZM910.352 41.9609C910.352 42.4297 910.258 42.875 910.07 43.2969C909.883 43.7031 909.625 44.0703 909.297 44.3984C908.969 44.7109 908.594 44.9609 908.172 45.1484C907.75 45.3203 907.305 45.4062 906.836 45.4062C906.336 45.4062 905.867 45.3203 905.43 45.1484C905.008 44.9609 904.641 44.7109 904.328 44.3984C904.016 44.0703 903.766 43.7031 903.578 43.2969C903.391 42.875 903.297 42.4297 903.297 41.9609C903.297 41.4766 903.391 41.0312 903.578 40.625C903.766 40.2031 904.016 39.8359 904.328 39.5234C904.641 39.2109 905.008 38.9688 905.43 38.7969C905.867 38.6094 906.336 38.5156 906.836 38.5156C907.305 38.5156 907.75 38.6094 908.172 38.7969C908.594 38.9688 908.969 39.2109 909.297 39.5234C909.625 39.8359 909.883 40.2031 910.07 40.625C910.258 41.0312 910.352 41.4766 910.352 41.9609Z" fill="black"/>
<path d="M1011.38 197.25C1011.38 181.694 1011.37 173.915 1016.21 169.083C1021.04 164.25 1028.82 164.25 1044.38 164.25H1052.62C1068.18 164.25 1075.96 164.25 1080.79 169.083C1085.62 173.915 1085.62 181.694 1085.62 197.25V213.75C1085.62 229.306 1085.62 237.085 1080.79 241.917C1075.96 246.75 1068.18 246.75 1052.62 246.75H1044.38C1028.82 246.75 1021.04 246.75 1016.21 241.917C1011.37 237.085 1011.38 229.306 1011.38 213.75V197.25Z" stroke="#1C274C" stroke-width="3.75"/>
<path d="M1069.12 213.75C1069.12 225.141 1059.89 234.375 1048.5 234.375C1037.11 234.375 1027.88 225.141 1027.88 213.75C1027.88 202.359 1037.11 193.125 1048.5 193.125C1059.89 193.125 1069.12 202.359 1069.12 213.75Z" stroke="#1C274C" stroke-width="3.75"/>
<path d="M1032 180.75H1065" stroke="#1C274C" stroke-width="3.75" stroke-linecap="round"/>
<path d="M1028.84 215.245C1032.37 217.007 1036.4 220.024 1043.24 221.255C1052.98 223.012 1052.01 214.454 1061.75 216.209C1064.72 216.744 1066.72 217.649 1068.14 218.62" stroke="#1C274C" stroke-width="3.75" stroke-linecap="round"/>
<path d="M639.542 174.818H699.346V248.974H639.542V174.818Z" fill="white"/>
<path d="M699.346 248.974H639.542L645.323 260.199L694.14 260.02L699.346 248.974ZM645.976 165.257H692.655L699.584 174.818H639.542L645.976 165.257Z" fill="#4C66AF"/>
<path d="M697.921 201.761C694.136 205.252 689.309 207.401 684.182 207.877C679.056 208.352 673.915 207.128 669.553 204.393C653.063 194.99 640.195 203.067 640.195 203.067V222.21C640.195 222.21 659.002 216.271 672.364 225.674C685.726 235.077 698.594 222.21 698.594 222.21L697.921 201.761Z" fill="#EA5D5C"/>
<path d="M699.9 171.295L694.476 164.504C694.106 164.042 693.636 163.668 693.101 163.411C692.567 163.154 691.981 163.02 691.388 163.02H647.639C647.046 163.02 646.46 163.154 645.926 163.411C645.391 163.668 644.921 164.042 644.551 164.504L639.126 171.295C638.284 172.345 637.823 173.65 637.82 174.996V250.221C637.818 251.279 638.098 252.317 638.632 253.23L642.591 260.02C642.938 260.622 643.437 261.121 644.038 261.469C644.639 261.816 645.321 261.999 646.016 262H692.972C693.666 261.999 694.348 261.816 694.949 261.469C695.55 261.121 696.049 260.622 696.396 260.02L700.356 253.23C700.889 252.317 701.169 251.279 701.167 250.221V174.996C701.175 173.655 700.729 172.35 699.9 171.295ZM641.779 246.896V224.368C645.316 222.454 649.292 221.496 653.312 221.59C657.333 221.684 661.259 222.826 664.703 224.902C670.023 228.363 676.178 230.325 682.519 230.584C687.862 230.583 693.031 228.69 697.109 225.239V246.896H641.68H641.779ZM697.208 178.104V199.761C689.29 208.313 679.293 208.867 666.722 201.424C662.999 199.168 658.782 197.852 654.437 197.59C650.091 197.328 645.747 198.127 641.779 199.92V178.144H697.208V178.104ZM641.779 204.314C645.317 202.402 649.292 201.446 653.312 201.54C657.332 201.633 661.258 202.774 664.703 204.849C670.023 208.309 676.178 210.272 682.519 210.53C687.862 210.53 693.031 208.636 697.109 205.185V219.815C689.191 228.367 679.194 228.921 666.623 221.477C662.9 219.221 658.683 217.905 654.338 217.643C649.992 217.381 645.648 218.181 641.68 219.973V204.314H641.779ZM647.718 166.979H691.428L696.852 173.769C696.938 173.886 697.011 174.012 697.07 174.145H641.997C642.055 174.012 642.129 173.886 642.215 173.769L647.718 166.979ZM693.031 258.041H646.035L642.076 251.251C642.009 251.125 641.956 250.992 641.918 250.855H697.129C697.091 250.992 697.037 251.125 696.971 251.251L693.031 258.041Z" fill="#3F4651"/>
<path fill-rule="evenodd" clip-rule="evenodd" d="M335.875 179.5C335.875 175.853 331.152 174.556 328.027 173.698C327.74 173.619 327.467 173.544 327.211 173.471C323.309 172.356 317.767 171.25 311.125 171.25C304.014 171.25 298.151 173.618 294.125 175.919C293.51 176.27 292.862 176.757 292.277 177.196C291.504 177.776 290.839 178.275 290.5 178.275C290.161 178.275 289.496 177.776 288.723 177.196C288.138 176.757 287.49 176.27 286.875 175.919C282.849 173.618 276.986 171.25 269.875 171.25C263.233 171.25 257.691 172.356 253.789 173.471C253.543 173.541 253.28 173.614 253.004 173.69C249.894 174.546 245.125 175.859 245.125 179.5V233.125C245.125 234.555 245.865 235.882 247.081 236.634C249.016 237.83 251.569 236.783 253.832 235.856C254.621 235.532 255.375 235.223 256.055 235.029C259.372 234.081 264.142 233.125 269.875 233.125C275.078 233.125 278.973 234.841 281.893 236.638C282.643 237.1 283.401 237.688 284.179 238.292C286.102 239.786 288.148 241.375 290.5 241.375C292.859 241.375 294.894 239.792 296.814 238.299C297.593 237.693 298.353 237.102 299.107 236.638C302.027 234.841 305.922 233.125 311.125 233.125C316.858 233.125 321.628 234.081 324.945 235.029C325.656 235.232 326.428 235.558 327.23 235.897C329.458 236.838 331.912 237.874 333.919 236.634C335.135 235.882 335.875 234.555 335.875 233.125V179.5ZM254.747 181.8C253.918 182.064 253.375 182.844 253.375 183.714V224.459C253.375 225.836 254.699 226.827 256.038 226.505C259.71 225.62 264.421 224.875 269.875 224.875C277.148 224.875 282.578 227.348 286.375 229.71V185.505C285.545 184.846 284.328 183.965 282.782 183.081C279.589 181.257 275.139 179.5 269.875 179.5C263.337 179.5 258.036 180.75 254.747 181.8ZM311.125 224.875C303.852 224.875 298.422 227.348 294.625 229.71V185.505C295.455 184.846 296.672 183.965 298.218 183.081C301.411 181.257 305.861 179.5 311.125 179.5C317.663 179.5 322.964 180.75 326.253 181.8C327.082 182.064 327.625 182.844 327.625 183.714V224.459C327.625 225.836 326.301 226.827 324.962 226.505C321.29 225.62 316.579 224.875 311.125 224.875Z" fill="#0F0F0F"/>
<path d="M249.61 247.186C248.679 245.107 249.61 242.667 251.689 241.735C253.621 240.877 255.62 240.155 257.631 239.51C260.968 238.439 265.581 237.25 269.875 237.25C274.688 237.25 278.797 239.844 281.774 241.724C281.927 241.821 282.077 241.915 282.224 242.008C285.693 244.189 288.027 245.5 290.5 245.5C292.97 245.5 295.29 244.192 298.755 242.009C298.897 241.92 299.042 241.828 299.19 241.735C302.17 239.85 306.281 237.25 311.125 237.25C315.442 237.25 320.054 238.438 323.389 239.511C326.384 240.473 328.606 241.425 329.177 241.676C331.264 242.599 332.345 245.064 331.386 247.193C330.458 249.256 327.979 250.172 325.923 249.257C324.277 248.531 322.576 247.915 320.864 247.364C317.784 246.374 314.146 245.5 311.125 245.5C308.819 245.5 306.603 246.814 302.903 249.147C299.837 251.081 295.604 253.75 290.5 253.75C285.393 253.75 281.146 251.077 278.071 249.142C274.364 246.809 272.153 245.5 269.875 245.5C266.879 245.5 263.243 246.373 260.152 247.365C258.43 247.918 256.715 248.532 255.06 249.265C252.981 250.195 250.541 249.265 249.61 247.186Z" fill="#0F0F0F"/>
<path d="M264.758 288.566L260.109 290.246L254.309 309.914L257.629 312.199L244.797 313.273L248.273 309.23L240.715 290.324L237.082 288.566L248.918 285.441L246.066 288.195L250.988 308.84L257.355 290.168L254.348 285.793L264.758 288.566ZM268.098 305.832C268.267 306.561 268.495 307.277 268.781 307.98C269.068 308.671 269.419 309.289 269.836 309.836C270.253 310.383 270.734 310.826 271.281 311.164C271.828 311.503 272.447 311.672 273.137 311.672C274.048 311.672 274.842 311.483 275.52 311.105C276.197 310.728 276.75 310.253 277.18 309.68C277.609 309.094 277.909 308.456 278.078 307.766C278.247 307.062 278.28 306.392 278.176 305.754C278.54 305.897 278.84 306.086 279.074 306.32C279.322 306.555 279.51 306.815 279.641 307.102C279.784 307.375 279.882 307.661 279.934 307.961C279.986 308.247 280.012 308.527 280.012 308.801C280.012 309.426 279.829 310.031 279.465 310.617C279.1 311.19 278.586 311.704 277.922 312.16C277.271 312.603 276.496 312.961 275.598 313.234C274.699 313.508 273.716 313.645 272.648 313.645C271.216 313.645 269.934 313.365 268.801 312.805C267.681 312.245 266.73 311.49 265.949 310.539C265.168 309.576 264.569 308.449 264.152 307.16C263.736 305.871 263.527 304.497 263.527 303.039C263.527 301.555 263.736 300.188 264.152 298.938C264.569 297.674 265.181 296.6 265.988 295.715C266.809 294.829 267.811 294.159 268.996 293.703C270.181 293.247 271.548 293.065 273.098 293.156C274.165 293.234 275.148 293.54 276.047 294.074C276.945 294.608 277.727 295.298 278.391 296.145C279.068 296.978 279.608 297.935 280.012 299.016C280.428 300.096 280.682 301.223 280.773 302.395L268.098 305.832ZM267.727 302.688C267.727 302.87 267.727 303.052 267.727 303.234C267.727 303.404 267.74 303.579 267.766 303.762L276.34 300.637C276.053 299.699 275.728 298.898 275.363 298.234C275.012 297.557 274.641 297.004 274.25 296.574C273.859 296.145 273.462 295.832 273.059 295.637C272.668 295.428 272.29 295.324 271.926 295.324C271.379 295.324 270.897 295.428 270.48 295.637C270.064 295.845 269.699 296.132 269.387 296.496C269.087 296.848 268.827 297.264 268.605 297.746C268.397 298.228 268.228 298.742 268.098 299.289C267.967 299.836 267.87 300.402 267.805 300.988C267.753 301.561 267.727 302.128 267.727 302.688ZM300.676 300.871C300.676 301.6 300.643 302.368 300.578 303.176C300.513 303.983 300.415 304.79 300.285 305.598C300.155 306.405 299.992 307.193 299.797 307.961C299.615 308.729 299.4 309.432 299.152 310.07L303 311.32L292.824 313.312L296.281 310.715C296.555 309.712 296.737 308.749 296.828 307.824C296.932 306.9 296.984 306.027 296.984 305.207C296.984 304.712 296.965 304.152 296.926 303.527C296.9 302.889 296.828 302.245 296.711 301.594C296.607 300.943 296.451 300.305 296.242 299.68C296.047 299.055 295.786 298.501 295.461 298.02C295.135 297.525 294.732 297.134 294.25 296.848C293.781 296.548 293.215 296.398 292.551 296.398C291.783 296.398 291.001 296.652 290.207 297.16C289.413 297.668 288.677 298.417 288 299.406V310.207L291.223 312.512L281.555 313.195L284.113 310.363L285.48 296.164L281.32 294.113L288 293.449V296.398C288.378 295.878 288.794 295.389 289.25 294.934C289.706 294.478 290.188 294.087 290.695 293.762C291.203 293.423 291.73 293.163 292.277 292.98C292.837 292.785 293.41 292.688 293.996 292.688C295.129 292.688 296.112 292.896 296.945 293.312C297.779 293.729 298.469 294.309 299.016 295.051C299.576 295.78 299.992 296.646 300.266 297.648C300.539 298.638 300.676 299.712 300.676 300.871ZM320.852 293.996L321.613 310.793L325.129 312.434L317.121 313.918L317.492 308.195C317.128 308.964 316.711 309.699 316.242 310.402C315.773 311.092 315.246 311.704 314.66 312.238C314.074 312.759 313.43 313.176 312.727 313.488C312.036 313.801 311.288 313.957 310.48 313.957C309.517 313.957 308.671 313.788 307.941 313.449C307.212 313.111 306.6 312.648 306.105 312.062C305.611 311.464 305.233 310.767 304.973 309.973C304.725 309.165 304.602 308.306 304.602 307.395C304.602 306.548 304.667 305.669 304.797 304.758C304.927 303.846 305.103 302.948 305.324 302.062C305.559 301.164 305.832 300.298 306.145 299.465C306.47 298.618 306.822 297.837 307.199 297.121L303.078 296.164L310.812 293.527C310.318 294.842 309.934 296.105 309.66 297.316C309.4 298.514 309.204 299.582 309.074 300.52C308.931 301.613 308.84 302.629 308.801 303.566C308.801 304.777 308.885 305.826 309.055 306.711C309.224 307.583 309.458 308.312 309.758 308.898C310.057 309.471 310.415 309.901 310.832 310.188C311.249 310.461 311.704 310.598 312.199 310.598C312.954 310.598 313.632 310.396 314.23 309.992C314.829 309.589 315.357 309.048 315.812 308.371C316.281 307.681 316.678 306.88 317.004 305.969C317.342 305.057 317.616 304.094 317.824 303.078C318.046 302.062 318.208 301.027 318.312 299.973C318.417 298.918 318.475 297.902 318.488 296.926L314.25 293.996H320.852ZM318.527 290.207C318.527 290.507 318.469 290.786 318.352 291.047C318.247 291.307 318.098 291.542 317.902 291.75C317.707 291.958 317.473 292.121 317.199 292.238C316.939 292.355 316.652 292.414 316.34 292.414C316.04 292.414 315.76 292.355 315.5 292.238C315.24 292.121 315.012 291.958 314.816 291.75C314.621 291.542 314.465 291.307 314.348 291.047C314.23 290.786 314.172 290.507 314.172 290.207C314.172 289.908 314.23 289.628 314.348 289.367C314.465 289.094 314.621 288.859 314.816 288.664C315.012 288.469 315.24 288.312 315.5 288.195C315.76 288.078 316.04 288.02 316.34 288.02C316.652 288.02 316.939 288.078 317.199 288.195C317.473 288.312 317.707 288.469 317.902 288.664C318.098 288.859 318.247 289.094 318.352 289.367C318.469 289.628 318.527 289.908 318.527 290.207ZM312.531 290.324C312.531 290.624 312.473 290.904 312.355 291.164C312.251 291.411 312.102 291.626 311.906 291.809C311.724 291.991 311.503 292.141 311.242 292.258C310.995 292.362 310.721 292.414 310.422 292.414C310.122 292.414 309.842 292.362 309.582 292.258C309.335 292.141 309.113 291.991 308.918 291.809C308.723 291.626 308.566 291.411 308.449 291.164C308.345 290.904 308.293 290.624 308.293 290.324C308.293 290.025 308.345 289.751 308.449 289.504C308.566 289.243 308.723 289.022 308.918 288.84C309.113 288.645 309.335 288.495 309.582 288.391C309.842 288.273 310.122 288.215 310.422 288.215C311.021 288.215 311.522 288.417 311.926 288.82C312.329 289.224 312.531 289.725 312.531 290.324ZM332.922 293.117C333.417 293.117 333.918 293.163 334.426 293.254C334.934 293.332 335.428 293.456 335.91 293.625C336.405 293.781 336.867 293.977 337.297 294.211C337.74 294.432 338.137 294.68 338.488 294.953L341.691 291.008L340.246 300.754C340.09 300.077 339.816 299.413 339.426 298.762C339.035 298.098 338.547 297.505 337.961 296.984C337.388 296.464 336.724 296.047 335.969 295.734C335.214 295.409 334.387 295.246 333.488 295.246C332.993 295.246 332.518 295.305 332.062 295.422C331.607 295.526 331.203 295.702 330.852 295.949C330.513 296.197 330.24 296.509 330.031 296.887C329.836 297.264 329.738 297.714 329.738 298.234C329.738 298.859 329.908 299.367 330.246 299.758C330.598 300.148 331.053 300.48 331.613 300.754C332.173 301.014 332.811 301.242 333.527 301.438C334.243 301.62 334.979 301.815 335.734 302.023C336.49 302.232 337.225 302.479 337.941 302.766C338.658 303.039 339.296 303.397 339.855 303.84C340.415 304.283 340.865 304.836 341.203 305.5C341.555 306.151 341.73 306.958 341.73 307.922C341.73 309.003 341.516 309.927 341.086 310.695C340.669 311.451 340.129 312.076 339.465 312.57C338.801 313.052 338.065 313.404 337.258 313.625C336.451 313.846 335.663 313.957 334.895 313.957C334.27 313.957 333.645 313.892 333.02 313.762C332.395 313.632 331.789 313.449 331.203 313.215C330.617 312.98 330.057 312.701 329.523 312.375C329.003 312.049 328.527 311.698 328.098 311.32L325.129 315.285L326.047 305.598C326.464 306.483 326.965 307.31 327.551 308.078C328.137 308.846 328.788 309.517 329.504 310.09C330.22 310.65 330.988 311.092 331.809 311.418C332.629 311.73 333.482 311.887 334.367 311.887C335.396 311.887 336.216 311.672 336.828 311.242C337.453 310.799 337.766 310.174 337.766 309.367C337.766 308.846 337.59 308.417 337.238 308.078C336.9 307.727 336.444 307.421 335.871 307.16C335.311 306.9 334.673 306.665 333.957 306.457C333.241 306.249 332.505 306.021 331.75 305.773C330.995 305.526 330.259 305.24 329.543 304.914C328.827 304.576 328.182 304.159 327.609 303.664C327.049 303.156 326.594 302.544 326.242 301.828C325.904 301.099 325.734 300.22 325.734 299.191C325.734 298.306 325.865 297.538 326.125 296.887C326.385 296.236 326.724 295.689 327.141 295.246C327.57 294.79 328.046 294.426 328.566 294.152C329.1 293.866 329.634 293.651 330.168 293.508C330.702 293.352 331.21 293.247 331.691 293.195C332.173 293.143 332.583 293.117 332.922 293.117ZM245.715 334L240.754 336.324L232.355 348.551L232.824 355.641L236.711 358.473L223.43 359.352L227.824 356.441L229.309 348.473L221.672 336.48L216.945 334.801L230.344 331.598L226.672 334.918L231.066 346.285L236.301 335.23L233.078 331.871L245.715 334ZM260.344 346.832C260.344 347.522 260.305 348.264 260.227 349.059C260.148 349.853 260.031 350.66 259.875 351.48C259.732 352.301 259.556 353.108 259.348 353.902C259.152 354.684 258.938 355.406 258.703 356.07L262.863 359L255.5 358.688L255.949 356.285C255.168 357.262 254.263 358.01 253.234 358.531C252.219 359.039 251.04 359.345 249.699 359.449C248.605 359.527 247.648 359.449 246.828 359.215C246.021 358.993 245.344 358.648 244.797 358.18C244.263 357.698 243.866 357.112 243.605 356.422C243.345 355.719 243.215 354.938 243.215 354.078C243.215 353.284 243.41 352.516 243.801 351.773C244.191 351.018 244.751 350.354 245.48 349.781C246.223 349.208 247.128 348.753 248.195 348.414C249.263 348.062 250.474 347.887 251.828 347.887C252.453 347.887 253.169 347.945 253.977 348.062C254.797 348.18 255.572 348.427 256.301 348.805C256.236 348.01 256.112 347.203 255.93 346.383C255.76 345.549 255.507 344.794 255.168 344.117C254.829 343.44 254.387 342.893 253.84 342.477C253.306 342.047 252.635 341.832 251.828 341.832C251.138 341.832 250.467 341.975 249.816 342.262C249.165 342.548 248.553 342.958 247.98 343.492C247.421 344.026 246.913 344.677 246.457 345.445C246.001 346.214 245.617 347.079 245.305 348.043L243.664 338.473L246.145 342.281C246.757 341.526 247.375 340.927 248 340.484C248.625 340.029 249.243 339.684 249.855 339.449C250.48 339.202 251.079 339.039 251.652 338.961C252.238 338.883 252.798 338.844 253.332 338.844C254.335 338.896 255.259 339.104 256.105 339.469C256.965 339.82 257.707 340.335 258.332 341.012C258.957 341.676 259.445 342.496 259.797 343.473C260.161 344.449 260.344 345.569 260.344 346.832ZM256.301 353.082C256.327 352.717 256.346 352.366 256.359 352.027C256.372 351.689 256.379 351.357 256.379 351.031V350.797C255.91 350.615 255.435 350.478 254.953 350.387C254.484 350.283 254.048 350.211 253.645 350.172C253.241 350.12 252.896 350.094 252.609 350.094C252.336 350.081 252.154 350.074 252.062 350.074C251.32 350.1 250.676 350.237 250.129 350.484C249.582 350.732 249.126 351.044 248.762 351.422C248.41 351.786 248.143 352.197 247.961 352.652C247.792 353.108 247.707 353.557 247.707 354C247.707 355.003 247.948 355.764 248.43 356.285C248.924 356.793 249.641 357.047 250.578 357.047C251.203 357.047 251.796 356.936 252.355 356.715C252.915 356.493 253.436 356.201 253.918 355.836C254.413 355.458 254.855 355.035 255.246 354.566C255.65 354.085 256.001 353.59 256.301 353.082ZM279.582 341.93C279.712 342.997 279.81 344.156 279.875 345.406C279.953 346.656 279.979 347.939 279.953 349.254C279.927 350.569 279.842 351.891 279.699 353.219C279.556 354.534 279.328 355.803 279.016 357.027C278.703 358.238 278.299 359.371 277.805 360.426C277.31 361.48 276.698 362.392 275.969 363.16C275.253 363.941 274.406 364.553 273.43 364.996C272.466 365.452 271.353 365.68 270.09 365.68C268.658 365.68 267.128 365.322 265.5 364.605L264.055 367.477L262.062 359.801C262.648 360.569 263.247 361.188 263.859 361.656C264.484 362.125 265.077 362.483 265.637 362.73C266.21 362.991 266.73 363.16 267.199 363.238C267.681 363.316 268.072 363.355 268.371 363.355C269.439 363.355 270.389 363.017 271.223 362.34C272.069 361.676 272.811 360.751 273.449 359.566C272.408 358.473 271.392 357.288 270.402 356.012C269.426 354.723 268.54 353.355 267.746 351.91C266.952 350.452 266.281 348.922 265.734 347.32C265.201 345.719 264.855 344.052 264.699 342.32L261.496 340.602L270.539 339.312L268.859 341.598C269.198 344.215 269.849 346.786 270.812 349.312C271.776 351.839 273.033 354.404 274.582 357.008C274.921 356.031 275.214 354.977 275.461 353.844C275.721 352.711 275.936 351.513 276.105 350.25C276.288 348.987 276.424 347.678 276.516 346.324C276.607 344.957 276.665 343.57 276.691 342.164L273.781 339.312C274.862 339.391 275.812 339.462 276.633 339.527C277.466 339.592 278.189 339.651 278.801 339.703C279.413 339.742 279.927 339.781 280.344 339.82C280.773 339.846 281.125 339.866 281.398 339.879C282.036 339.931 282.414 339.957 282.531 339.957L279.582 341.93ZM283.332 359.195L286.398 356.793L285.734 343.316L282.121 340.953L290.52 339.527L289.016 355.191L293.215 357.809L283.332 359.195ZM311.691 346.871C311.691 347.6 311.659 348.368 311.594 349.176C311.529 349.983 311.431 350.79 311.301 351.598C311.171 352.405 311.008 353.193 310.812 353.961C310.63 354.729 310.415 355.432 310.168 356.07L314.016 357.32L303.84 359.312L307.297 356.715C307.57 355.712 307.753 354.749 307.844 353.824C307.948 352.9 308 352.027 308 351.207C308 350.712 307.98 350.152 307.941 349.527C307.915 348.889 307.844 348.245 307.727 347.594C307.622 346.943 307.466 346.305 307.258 345.68C307.062 345.055 306.802 344.501 306.477 344.02C306.151 343.525 305.747 343.134 305.266 342.848C304.797 342.548 304.23 342.398 303.566 342.398C302.798 342.398 302.017 342.652 301.223 343.16C300.428 343.668 299.693 344.417 299.016 345.406V356.207L302.238 358.512L292.57 359.195L295.129 356.363L296.496 342.164L292.336 340.113L299.016 339.449V342.398C299.393 341.878 299.81 341.389 300.266 340.934C300.721 340.478 301.203 340.087 301.711 339.762C302.219 339.423 302.746 339.163 303.293 338.98C303.853 338.785 304.426 338.688 305.012 338.688C306.145 338.688 307.128 338.896 307.961 339.312C308.794 339.729 309.484 340.309 310.031 341.051C310.591 341.78 311.008 342.646 311.281 343.648C311.555 344.638 311.691 345.712 311.691 346.871ZM319.504 351.832C319.673 352.561 319.901 353.277 320.188 353.98C320.474 354.671 320.826 355.289 321.242 355.836C321.659 356.383 322.141 356.826 322.688 357.164C323.234 357.503 323.853 357.672 324.543 357.672C325.454 357.672 326.249 357.483 326.926 357.105C327.603 356.728 328.156 356.253 328.586 355.68C329.016 355.094 329.315 354.456 329.484 353.766C329.654 353.062 329.686 352.392 329.582 351.754C329.947 351.897 330.246 352.086 330.48 352.32C330.728 352.555 330.917 352.815 331.047 353.102C331.19 353.375 331.288 353.661 331.34 353.961C331.392 354.247 331.418 354.527 331.418 354.801C331.418 355.426 331.236 356.031 330.871 356.617C330.507 357.19 329.992 357.704 329.328 358.16C328.677 358.603 327.902 358.961 327.004 359.234C326.105 359.508 325.122 359.645 324.055 359.645C322.622 359.645 321.34 359.365 320.207 358.805C319.087 358.245 318.137 357.49 317.355 356.539C316.574 355.576 315.975 354.449 315.559 353.16C315.142 351.871 314.934 350.497 314.934 349.039C314.934 347.555 315.142 346.188 315.559 344.938C315.975 343.674 316.587 342.6 317.395 341.715C318.215 340.829 319.217 340.159 320.402 339.703C321.587 339.247 322.954 339.065 324.504 339.156C325.572 339.234 326.555 339.54 327.453 340.074C328.352 340.608 329.133 341.298 329.797 342.145C330.474 342.978 331.014 343.935 331.418 345.016C331.835 346.096 332.089 347.223 332.18 348.395L319.504 351.832ZM319.133 348.688C319.133 348.87 319.133 349.052 319.133 349.234C319.133 349.404 319.146 349.579 319.172 349.762L327.746 346.637C327.46 345.699 327.134 344.898 326.77 344.234C326.418 343.557 326.047 343.004 325.656 342.574C325.266 342.145 324.868 341.832 324.465 341.637C324.074 341.428 323.697 341.324 323.332 341.324C322.785 341.324 322.303 341.428 321.887 341.637C321.47 341.845 321.105 342.132 320.793 342.496C320.493 342.848 320.233 343.264 320.012 343.746C319.803 344.228 319.634 344.742 319.504 345.289C319.374 345.836 319.276 346.402 319.211 346.988C319.159 347.561 319.133 348.128 319.133 348.688ZM353.41 341.07L349.758 343.199L345.48 357.32L348.488 359.391L336.77 359.117L340.402 356.637L334.602 342.672L332.043 341.168L342.336 339.996L339.973 342.32L342.883 355.68L347.609 343.238L344.68 340.68L353.41 341.07ZM353.176 359.195L356.242 356.793L355.578 343.316L351.965 340.953L360.363 339.527L358.859 355.191L363.059 357.809L353.176 359.195ZM360.578 334.801C360.578 335.191 360.5 335.562 360.344 335.914C360.188 336.253 359.973 336.559 359.699 336.832C359.426 337.092 359.113 337.301 358.762 337.457C358.41 337.6 358.039 337.672 357.648 337.672C357.232 337.672 356.841 337.6 356.477 337.457C356.125 337.301 355.819 337.092 355.559 336.832C355.298 336.559 355.09 336.253 354.934 335.914C354.777 335.562 354.699 335.191 354.699 334.801C354.699 334.397 354.777 334.026 354.934 333.688C355.09 333.336 355.298 333.03 355.559 332.77C355.819 332.509 356.125 332.307 356.477 332.164C356.841 332.008 357.232 331.93 357.648 331.93C358.039 331.93 358.41 332.008 358.762 332.164C359.113 332.307 359.426 332.509 359.699 332.77C359.973 333.03 360.188 333.336 360.344 333.688C360.5 334.026 360.578 334.397 360.578 334.801Z" fill="black"/>
<path d="M601.512 312.566L596.863 314.246L591.062 333.914L594.383 336.199L581.551 337.273L585.027 333.23L577.469 314.324L573.836 312.566L585.672 309.441L582.82 312.195L587.742 332.84L594.109 314.168L591.102 309.793L601.512 312.566ZM604.852 329.832C605.021 330.561 605.249 331.277 605.535 331.98C605.822 332.671 606.173 333.289 606.59 333.836C607.007 334.383 607.488 334.826 608.035 335.164C608.582 335.503 609.201 335.672 609.891 335.672C610.802 335.672 611.596 335.483 612.273 335.105C612.951 334.728 613.504 334.253 613.934 333.68C614.363 333.094 614.663 332.456 614.832 331.766C615.001 331.062 615.034 330.392 614.93 329.754C615.294 329.897 615.594 330.086 615.828 330.32C616.076 330.555 616.264 330.815 616.395 331.102C616.538 331.375 616.635 331.661 616.688 331.961C616.74 332.247 616.766 332.527 616.766 332.801C616.766 333.426 616.583 334.031 616.219 334.617C615.854 335.19 615.34 335.704 614.676 336.16C614.025 336.603 613.25 336.961 612.352 337.234C611.453 337.508 610.47 337.645 609.402 337.645C607.97 337.645 606.688 337.365 605.555 336.805C604.435 336.245 603.484 335.49 602.703 334.539C601.922 333.576 601.323 332.449 600.906 331.16C600.49 329.871 600.281 328.497 600.281 327.039C600.281 325.555 600.49 324.188 600.906 322.938C601.323 321.674 601.935 320.6 602.742 319.715C603.562 318.829 604.565 318.159 605.75 317.703C606.935 317.247 608.302 317.065 609.852 317.156C610.919 317.234 611.902 317.54 612.801 318.074C613.699 318.608 614.48 319.298 615.145 320.145C615.822 320.978 616.362 321.935 616.766 323.016C617.182 324.096 617.436 325.223 617.527 326.395L604.852 329.832ZM604.48 326.688C604.48 326.87 604.48 327.052 604.48 327.234C604.48 327.404 604.493 327.579 604.52 327.762L613.094 324.637C612.807 323.699 612.482 322.898 612.117 322.234C611.766 321.557 611.395 321.004 611.004 320.574C610.613 320.145 610.216 319.832 609.812 319.637C609.422 319.428 609.044 319.324 608.68 319.324C608.133 319.324 607.651 319.428 607.234 319.637C606.818 319.845 606.453 320.132 606.141 320.496C605.841 320.848 605.581 321.264 605.359 321.746C605.151 322.228 604.982 322.742 604.852 323.289C604.721 323.836 604.624 324.402 604.559 324.988C604.507 325.561 604.48 326.128 604.48 326.688ZM637.43 324.871C637.43 325.6 637.397 326.368 637.332 327.176C637.267 327.983 637.169 328.79 637.039 329.598C636.909 330.405 636.746 331.193 636.551 331.961C636.368 332.729 636.154 333.432 635.906 334.07L639.754 335.32L629.578 337.312L633.035 334.715C633.309 333.712 633.491 332.749 633.582 331.824C633.686 330.9 633.738 330.027 633.738 329.207C633.738 328.712 633.719 328.152 633.68 327.527C633.654 326.889 633.582 326.245 633.465 325.594C633.361 324.943 633.204 324.305 632.996 323.68C632.801 323.055 632.54 322.501 632.215 322.02C631.889 321.525 631.486 321.134 631.004 320.848C630.535 320.548 629.969 320.398 629.305 320.398C628.536 320.398 627.755 320.652 626.961 321.16C626.167 321.668 625.431 322.417 624.754 323.406V334.207L627.977 336.512L618.309 337.195L620.867 334.363L622.234 320.164L618.074 318.113L624.754 317.449V320.398C625.132 319.878 625.548 319.389 626.004 318.934C626.46 318.478 626.941 318.087 627.449 317.762C627.957 317.423 628.484 317.163 629.031 316.98C629.591 316.785 630.164 316.688 630.75 316.688C631.883 316.688 632.866 316.896 633.699 317.312C634.533 317.729 635.223 318.309 635.77 319.051C636.329 319.78 636.746 320.646 637.02 321.648C637.293 322.638 637.43 323.712 637.43 324.871ZM657.605 317.996L658.367 334.793L661.883 336.434L653.875 337.918L654.246 332.195C653.882 332.964 653.465 333.699 652.996 334.402C652.527 335.092 652 335.704 651.414 336.238C650.828 336.759 650.184 337.176 649.48 337.488C648.79 337.801 648.042 337.957 647.234 337.957C646.271 337.957 645.424 337.788 644.695 337.449C643.966 337.111 643.354 336.648 642.859 336.062C642.365 335.464 641.987 334.767 641.727 333.973C641.479 333.165 641.355 332.306 641.355 331.395C641.355 330.548 641.421 329.669 641.551 328.758C641.681 327.846 641.857 326.948 642.078 326.062C642.312 325.164 642.586 324.298 642.898 323.465C643.224 322.618 643.576 321.837 643.953 321.121L639.832 320.164L647.566 317.527C647.072 318.842 646.688 320.105 646.414 321.316C646.154 322.514 645.958 323.582 645.828 324.52C645.685 325.613 645.594 326.629 645.555 327.566C645.555 328.777 645.639 329.826 645.809 330.711C645.978 331.583 646.212 332.312 646.512 332.898C646.811 333.471 647.169 333.901 647.586 334.188C648.003 334.461 648.458 334.598 648.953 334.598C649.708 334.598 650.385 334.396 650.984 333.992C651.583 333.589 652.111 333.048 652.566 332.371C653.035 331.681 653.432 330.88 653.758 329.969C654.096 329.057 654.37 328.094 654.578 327.078C654.799 326.062 654.962 325.027 655.066 323.973C655.171 322.918 655.229 321.902 655.242 320.926L651.004 317.996H657.605ZM655.281 314.207C655.281 314.507 655.223 314.786 655.105 315.047C655.001 315.307 654.852 315.542 654.656 315.75C654.461 315.958 654.227 316.121 653.953 316.238C653.693 316.355 653.406 316.414 653.094 316.414C652.794 316.414 652.514 316.355 652.254 316.238C651.993 316.121 651.766 315.958 651.57 315.75C651.375 315.542 651.219 315.307 651.102 315.047C650.984 314.786 650.926 314.507 650.926 314.207C650.926 313.908 650.984 313.628 651.102 313.367C651.219 313.094 651.375 312.859 651.57 312.664C651.766 312.469 651.993 312.312 652.254 312.195C652.514 312.078 652.794 312.02 653.094 312.02C653.406 312.02 653.693 312.078 653.953 312.195C654.227 312.312 654.461 312.469 654.656 312.664C654.852 312.859 655.001 313.094 655.105 313.367C655.223 313.628 655.281 313.908 655.281 314.207ZM649.285 314.324C649.285 314.624 649.227 314.904 649.109 315.164C649.005 315.411 648.855 315.626 648.66 315.809C648.478 315.991 648.257 316.141 647.996 316.258C647.749 316.362 647.475 316.414 647.176 316.414C646.876 316.414 646.596 316.362 646.336 316.258C646.089 316.141 645.867 315.991 645.672 315.809C645.477 315.626 645.32 315.411 645.203 315.164C645.099 314.904 645.047 314.624 645.047 314.324C645.047 314.025 645.099 313.751 645.203 313.504C645.32 313.243 645.477 313.022 645.672 312.84C645.867 312.645 646.089 312.495 646.336 312.391C646.596 312.273 646.876 312.215 647.176 312.215C647.775 312.215 648.276 312.417 648.68 312.82C649.083 313.224 649.285 313.725 649.285 314.324ZM669.676 317.117C670.171 317.117 670.672 317.163 671.18 317.254C671.688 317.332 672.182 317.456 672.664 317.625C673.159 317.781 673.621 317.977 674.051 318.211C674.493 318.432 674.891 318.68 675.242 318.953L678.445 315.008L677 324.754C676.844 324.077 676.57 323.413 676.18 322.762C675.789 322.098 675.301 321.505 674.715 320.984C674.142 320.464 673.478 320.047 672.723 319.734C671.967 319.409 671.141 319.246 670.242 319.246C669.747 319.246 669.272 319.305 668.816 319.422C668.361 319.526 667.957 319.702 667.605 319.949C667.267 320.197 666.993 320.509 666.785 320.887C666.59 321.264 666.492 321.714 666.492 322.234C666.492 322.859 666.661 323.367 667 323.758C667.352 324.148 667.807 324.48 668.367 324.754C668.927 325.014 669.565 325.242 670.281 325.438C670.997 325.62 671.733 325.815 672.488 326.023C673.243 326.232 673.979 326.479 674.695 326.766C675.411 327.039 676.049 327.397 676.609 327.84C677.169 328.283 677.618 328.836 677.957 329.5C678.309 330.151 678.484 330.958 678.484 331.922C678.484 333.003 678.27 333.927 677.84 334.695C677.423 335.451 676.883 336.076 676.219 336.57C675.555 337.052 674.819 337.404 674.012 337.625C673.204 337.846 672.417 337.957 671.648 337.957C671.023 337.957 670.398 337.892 669.773 337.762C669.148 337.632 668.543 337.449 667.957 337.215C667.371 336.98 666.811 336.701 666.277 336.375C665.757 336.049 665.281 335.698 664.852 335.32L661.883 339.285L662.801 329.598C663.217 330.483 663.719 331.31 664.305 332.078C664.891 332.846 665.542 333.517 666.258 334.09C666.974 334.65 667.742 335.092 668.562 335.418C669.383 335.73 670.236 335.887 671.121 335.887C672.15 335.887 672.97 335.672 673.582 335.242C674.207 334.799 674.52 334.174 674.52 333.367C674.52 332.846 674.344 332.417 673.992 332.078C673.654 331.727 673.198 331.421 672.625 331.16C672.065 330.9 671.427 330.665 670.711 330.457C669.995 330.249 669.259 330.021 668.504 329.773C667.749 329.526 667.013 329.24 666.297 328.914C665.581 328.576 664.936 328.159 664.363 327.664C663.803 327.156 663.348 326.544 662.996 325.828C662.658 325.099 662.488 324.22 662.488 323.191C662.488 322.306 662.618 321.538 662.879 320.887C663.139 320.236 663.478 319.689 663.895 319.246C664.324 318.79 664.799 318.426 665.32 318.152C665.854 317.866 666.388 317.651 666.922 317.508C667.456 317.352 667.964 317.247 668.445 317.195C668.927 317.143 669.337 317.117 669.676 317.117ZM703.113 309.676C704.441 309.676 705.711 309.91 706.922 310.379C708.133 310.835 709.142 311.505 709.949 312.391L714.715 308.602L709.266 320.281L708.797 314.598C708.367 314.077 707.911 313.667 707.43 313.367C706.948 313.068 706.479 312.846 706.023 312.703C705.581 312.547 705.177 312.449 704.812 312.41C704.461 312.371 704.188 312.352 703.992 312.352C702.938 312.352 701.954 312.618 701.043 313.152C700.145 313.686 699.363 314.454 698.699 315.457C698.035 316.447 697.508 317.645 697.117 319.051C696.74 320.457 696.551 322.026 696.551 323.758C696.551 325.49 696.74 327.072 697.117 328.504C697.508 329.936 698.029 331.167 698.68 332.195C699.344 333.224 700.118 334.025 701.004 334.598C701.889 335.158 702.833 335.438 703.836 335.438C704.852 335.438 705.724 335.19 706.453 334.695C707.182 334.188 707.781 333.549 708.25 332.781C708.719 332.013 709.057 331.173 709.266 330.262C709.487 329.35 709.598 328.478 709.598 327.645C709.598 327.462 709.598 327.293 709.598 327.137C709.598 326.967 709.585 326.792 709.559 326.609C710.405 327.169 711.023 327.807 711.414 328.523C711.818 329.227 712.02 329.956 712.02 330.711C712.02 331.414 711.844 332.163 711.492 332.957C711.154 333.738 710.646 334.467 709.969 335.145C709.292 335.809 708.458 336.362 707.469 336.805C706.479 337.234 705.333 337.449 704.031 337.449C702.977 337.449 701.928 337.339 700.887 337.117C699.845 336.896 698.849 336.557 697.898 336.102C696.948 335.633 696.062 335.04 695.242 334.324C694.422 333.608 693.712 332.755 693.113 331.766C692.514 330.776 692.039 329.637 691.688 328.348C691.349 327.059 691.18 325.62 691.18 324.031C691.18 322.482 691.336 321.056 691.648 319.754C691.974 318.439 692.417 317.254 692.977 316.199C693.549 315.132 694.214 314.194 694.969 313.387C695.737 312.566 696.557 311.883 697.43 311.336C698.315 310.789 699.24 310.379 700.203 310.105C701.18 309.819 702.15 309.676 703.113 309.676ZM714.422 327.195C714.422 325.737 714.65 324.389 715.105 323.152C715.574 321.902 716.219 320.822 717.039 319.91C717.872 318.999 718.855 318.289 719.988 317.781C721.134 317.26 722.384 317 723.738 317C725.053 317 726.258 317.247 727.352 317.742C728.445 318.224 729.396 318.908 730.203 319.793C731.01 320.678 731.655 321.74 732.137 322.977C732.618 324.214 732.905 325.581 732.996 327.078C733.087 328.68 732.918 330.132 732.488 331.434C732.072 332.723 731.453 333.823 730.633 334.734C729.812 335.633 728.829 336.329 727.684 336.824C726.551 337.319 725.32 337.566 723.992 337.566C722.716 337.566 721.499 337.339 720.34 336.883C719.194 336.414 718.178 335.737 717.293 334.852C716.421 333.966 715.724 332.885 715.203 331.609C714.682 330.32 714.422 328.849 714.422 327.195ZM719.227 327.527C719.227 328.673 719.389 329.708 719.715 330.633C720.04 331.557 720.477 332.345 721.023 332.996C721.57 333.634 722.202 334.129 722.918 334.48C723.634 334.832 724.389 335.008 725.184 335.008C725.978 335.008 726.72 334.839 727.41 334.5C728.1 334.148 728.699 333.66 729.207 333.035C729.715 332.397 730.112 331.635 730.398 330.75C730.685 329.865 730.828 328.882 730.828 327.801C730.828 326.733 730.685 325.73 730.398 324.793C730.112 323.842 729.708 323.016 729.188 322.312C728.68 321.609 728.074 321.056 727.371 320.652C726.668 320.249 725.9 320.047 725.066 320.047C724.324 320.047 723.602 320.216 722.898 320.555C722.208 320.893 721.59 321.388 721.043 322.039C720.496 322.677 720.053 323.458 719.715 324.383C719.389 325.307 719.227 326.355 719.227 327.527ZM739.656 334.559L743.562 336.121L733.777 337.078L737.293 334.324L736.688 313.23L732.176 311.277L742.059 309.969L739.656 334.559ZM761.746 324.832C761.746 325.522 761.707 326.264 761.629 327.059C761.551 327.853 761.434 328.66 761.277 329.48C761.134 330.301 760.958 331.108 760.75 331.902C760.555 332.684 760.34 333.406 760.105 334.07L764.266 337L756.902 336.688L757.352 334.285C756.57 335.262 755.665 336.01 754.637 336.531C753.621 337.039 752.443 337.345 751.102 337.449C750.008 337.527 749.051 337.449 748.23 337.215C747.423 336.993 746.746 336.648 746.199 336.18C745.665 335.698 745.268 335.112 745.008 334.422C744.747 333.719 744.617 332.938 744.617 332.078C744.617 331.284 744.812 330.516 745.203 329.773C745.594 329.018 746.154 328.354 746.883 327.781C747.625 327.208 748.53 326.753 749.598 326.414C750.665 326.062 751.876 325.887 753.23 325.887C753.855 325.887 754.572 325.945 755.379 326.062C756.199 326.18 756.974 326.427 757.703 326.805C757.638 326.01 757.514 325.203 757.332 324.383C757.163 323.549 756.909 322.794 756.57 322.117C756.232 321.44 755.789 320.893 755.242 320.477C754.708 320.047 754.038 319.832 753.23 319.832C752.54 319.832 751.87 319.975 751.219 320.262C750.568 320.548 749.956 320.958 749.383 321.492C748.823 322.026 748.315 322.677 747.859 323.445C747.404 324.214 747.02 325.079 746.707 326.043L745.066 316.473L747.547 320.281C748.159 319.526 748.777 318.927 749.402 318.484C750.027 318.029 750.646 317.684 751.258 317.449C751.883 317.202 752.482 317.039 753.055 316.961C753.641 316.883 754.201 316.844 754.734 316.844C755.737 316.896 756.661 317.104 757.508 317.469C758.367 317.82 759.109 318.335 759.734 319.012C760.359 319.676 760.848 320.496 761.199 321.473C761.564 322.449 761.746 323.569 761.746 324.832ZM757.703 331.082C757.729 330.717 757.749 330.366 757.762 330.027C757.775 329.689 757.781 329.357 757.781 329.031V328.797C757.312 328.615 756.837 328.478 756.355 328.387C755.887 328.283 755.451 328.211 755.047 328.172C754.643 328.12 754.298 328.094 754.012 328.094C753.738 328.081 753.556 328.074 753.465 328.074C752.723 328.1 752.078 328.237 751.531 328.484C750.984 328.732 750.529 329.044 750.164 329.422C749.812 329.786 749.546 330.197 749.363 330.652C749.194 331.108 749.109 331.557 749.109 332C749.109 333.003 749.35 333.764 749.832 334.285C750.327 334.793 751.043 335.047 751.98 335.047C752.605 335.047 753.198 334.936 753.758 334.715C754.318 334.493 754.839 334.201 755.32 333.836C755.815 333.458 756.258 333.035 756.648 332.566C757.052 332.085 757.404 331.59 757.703 331.082Z" fill="black"/>
<path d="M970.047 289.566L965.398 291.246L959.598 310.914L962.918 313.199L950.086 314.273L953.562 310.23L946.004 291.324L942.371 289.566L954.207 286.441L951.355 289.195L956.277 309.84L962.645 291.168L959.637 286.793L970.047 289.566ZM973.387 306.832C973.556 307.561 973.784 308.277 974.07 308.98C974.357 309.671 974.708 310.289 975.125 310.836C975.542 311.383 976.023 311.826 976.57 312.164C977.117 312.503 977.736 312.672 978.426 312.672C979.337 312.672 980.132 312.483 980.809 312.105C981.486 311.728 982.039 311.253 982.469 310.68C982.898 310.094 983.198 309.456 983.367 308.766C983.536 308.062 983.569 307.392 983.465 306.754C983.829 306.897 984.129 307.086 984.363 307.32C984.611 307.555 984.799 307.815 984.93 308.102C985.073 308.375 985.171 308.661 985.223 308.961C985.275 309.247 985.301 309.527 985.301 309.801C985.301 310.426 985.118 311.031 984.754 311.617C984.389 312.19 983.875 312.704 983.211 313.16C982.56 313.603 981.785 313.961 980.887 314.234C979.988 314.508 979.005 314.645 977.938 314.645C976.505 314.645 975.223 314.365 974.09 313.805C972.97 313.245 972.02 312.49 971.238 311.539C970.457 310.576 969.858 309.449 969.441 308.16C969.025 306.871 968.816 305.497 968.816 304.039C968.816 302.555 969.025 301.188 969.441 299.938C969.858 298.674 970.47 297.6 971.277 296.715C972.098 295.829 973.1 295.159 974.285 294.703C975.47 294.247 976.837 294.065 978.387 294.156C979.454 294.234 980.438 294.54 981.336 295.074C982.234 295.608 983.016 296.298 983.68 297.145C984.357 297.978 984.897 298.935 985.301 300.016C985.717 301.096 985.971 302.223 986.062 303.395L973.387 306.832ZM973.016 303.688C973.016 303.87 973.016 304.052 973.016 304.234C973.016 304.404 973.029 304.579 973.055 304.762L981.629 301.637C981.342 300.699 981.017 299.898 980.652 299.234C980.301 298.557 979.93 298.004 979.539 297.574C979.148 297.145 978.751 296.832 978.348 296.637C977.957 296.428 977.579 296.324 977.215 296.324C976.668 296.324 976.186 296.428 975.77 296.637C975.353 296.845 974.988 297.132 974.676 297.496C974.376 297.848 974.116 298.264 973.895 298.746C973.686 299.228 973.517 299.742 973.387 300.289C973.257 300.836 973.159 301.402 973.094 301.988C973.042 302.561 973.016 303.128 973.016 303.688ZM1005.96 301.871C1005.96 302.6 1005.93 303.368 1005.87 304.176C1005.8 304.983 1005.7 305.79 1005.57 306.598C1005.44 307.405 1005.28 308.193 1005.09 308.961C1004.9 309.729 1004.69 310.432 1004.44 311.07L1008.29 312.32L998.113 314.312L1001.57 311.715C1001.84 310.712 1002.03 309.749 1002.12 308.824C1002.22 307.9 1002.27 307.027 1002.27 306.207C1002.27 305.712 1002.25 305.152 1002.21 304.527C1002.19 303.889 1002.12 303.245 1002 302.594C1001.9 301.943 1001.74 301.305 1001.53 300.68C1001.34 300.055 1001.08 299.501 1000.75 299.02C1000.42 298.525 1000.02 298.134 999.539 297.848C999.07 297.548 998.504 297.398 997.84 297.398C997.072 297.398 996.29 297.652 995.496 298.16C994.702 298.668 993.966 299.417 993.289 300.406V311.207L996.512 313.512L986.844 314.195L989.402 311.363L990.77 297.164L986.609 295.113L993.289 294.449V297.398C993.667 296.878 994.083 296.389 994.539 295.934C994.995 295.478 995.477 295.087 995.984 294.762C996.492 294.423 997.02 294.163 997.566 293.98C998.126 293.785 998.699 293.688 999.285 293.688C1000.42 293.688 1001.4 293.896 1002.23 294.312C1003.07 294.729 1003.76 295.309 1004.3 296.051C1004.86 296.78 1005.28 297.646 1005.55 298.648C1005.83 299.638 1005.96 300.712 1005.96 301.871ZM1026.14 294.996L1026.9 311.793L1030.42 313.434L1022.41 314.918L1022.78 309.195C1022.42 309.964 1022 310.699 1021.53 311.402C1021.06 312.092 1020.54 312.704 1019.95 313.238C1019.36 313.759 1018.72 314.176 1018.02 314.488C1017.33 314.801 1016.58 314.957 1015.77 314.957C1014.81 314.957 1013.96 314.788 1013.23 314.449C1012.5 314.111 1011.89 313.648 1011.39 313.062C1010.9 312.464 1010.52 311.767 1010.26 310.973C1010.01 310.165 1009.89 309.306 1009.89 308.395C1009.89 307.548 1009.96 306.669 1010.09 305.758C1010.22 304.846 1010.39 303.948 1010.61 303.062C1010.85 302.164 1011.12 301.298 1011.43 300.465C1011.76 299.618 1012.11 298.837 1012.49 298.121L1008.37 297.164L1016.1 294.527C1015.61 295.842 1015.22 297.105 1014.95 298.316C1014.69 299.514 1014.49 300.582 1014.36 301.52C1014.22 302.613 1014.13 303.629 1014.09 304.566C1014.09 305.777 1014.17 306.826 1014.34 307.711C1014.51 308.583 1014.75 309.312 1015.05 309.898C1015.35 310.471 1015.7 310.901 1016.12 311.188C1016.54 311.461 1016.99 311.598 1017.49 311.598C1018.24 311.598 1018.92 311.396 1019.52 310.992C1020.12 310.589 1020.65 310.048 1021.1 309.371C1021.57 308.681 1021.97 307.88 1022.29 306.969C1022.63 306.057 1022.9 305.094 1023.11 304.078C1023.33 303.062 1023.5 302.027 1023.6 300.973C1023.71 299.918 1023.76 298.902 1023.78 297.926L1019.54 294.996H1026.14ZM1023.82 291.207C1023.82 291.507 1023.76 291.786 1023.64 292.047C1023.54 292.307 1023.39 292.542 1023.19 292.75C1023 292.958 1022.76 293.121 1022.49 293.238C1022.23 293.355 1021.94 293.414 1021.63 293.414C1021.33 293.414 1021.05 293.355 1020.79 293.238C1020.53 293.121 1020.3 292.958 1020.11 292.75C1019.91 292.542 1019.75 292.307 1019.64 292.047C1019.52 291.786 1019.46 291.507 1019.46 291.207C1019.46 290.908 1019.52 290.628 1019.64 290.367C1019.75 290.094 1019.91 289.859 1020.11 289.664C1020.3 289.469 1020.53 289.312 1020.79 289.195C1021.05 289.078 1021.33 289.02 1021.63 289.02C1021.94 289.02 1022.23 289.078 1022.49 289.195C1022.76 289.312 1023 289.469 1023.19 289.664C1023.39 289.859 1023.54 290.094 1023.64 290.367C1023.76 290.628 1023.82 290.908 1023.82 291.207ZM1017.82 291.324C1017.82 291.624 1017.76 291.904 1017.64 292.164C1017.54 292.411 1017.39 292.626 1017.2 292.809C1017.01 292.991 1016.79 293.141 1016.53 293.258C1016.28 293.362 1016.01 293.414 1015.71 293.414C1015.41 293.414 1015.13 293.362 1014.87 293.258C1014.62 293.141 1014.4 292.991 1014.21 292.809C1014.01 292.626 1013.86 292.411 1013.74 292.164C1013.63 291.904 1013.58 291.624 1013.58 291.324C1013.58 291.025 1013.63 290.751 1013.74 290.504C1013.86 290.243 1014.01 290.022 1014.21 289.84C1014.4 289.645 1014.62 289.495 1014.87 289.391C1015.13 289.273 1015.41 289.215 1015.71 289.215C1016.31 289.215 1016.81 289.417 1017.21 289.82C1017.62 290.224 1017.82 290.725 1017.82 291.324ZM1038.21 294.117C1038.71 294.117 1039.21 294.163 1039.71 294.254C1040.22 294.332 1040.72 294.456 1041.2 294.625C1041.69 294.781 1042.16 294.977 1042.59 295.211C1043.03 295.432 1043.43 295.68 1043.78 295.953L1046.98 292.008L1045.54 301.754C1045.38 301.077 1045.11 300.413 1044.71 299.762C1044.32 299.098 1043.84 298.505 1043.25 297.984C1042.68 297.464 1042.01 297.047 1041.26 296.734C1040.5 296.409 1039.68 296.246 1038.78 296.246C1038.28 296.246 1037.81 296.305 1037.35 296.422C1036.9 296.526 1036.49 296.702 1036.14 296.949C1035.8 297.197 1035.53 297.509 1035.32 297.887C1035.12 298.264 1035.03 298.714 1035.03 299.234C1035.03 299.859 1035.2 300.367 1035.54 300.758C1035.89 301.148 1036.34 301.48 1036.9 301.754C1037.46 302.014 1038.1 302.242 1038.82 302.438C1039.53 302.62 1040.27 302.815 1041.02 303.023C1041.78 303.232 1042.51 303.479 1043.23 303.766C1043.95 304.039 1044.58 304.397 1045.14 304.84C1045.7 305.283 1046.15 305.836 1046.49 306.5C1046.84 307.151 1047.02 307.958 1047.02 308.922C1047.02 310.003 1046.8 310.927 1046.38 311.695C1045.96 312.451 1045.42 313.076 1044.75 313.57C1044.09 314.052 1043.35 314.404 1042.55 314.625C1041.74 314.846 1040.95 314.957 1040.18 314.957C1039.56 314.957 1038.93 314.892 1038.31 314.762C1037.68 314.632 1037.08 314.449 1036.49 314.215C1035.91 313.98 1035.35 313.701 1034.81 313.375C1034.29 313.049 1033.82 312.698 1033.39 312.32L1030.42 316.285L1031.34 306.598C1031.75 307.483 1032.25 308.31 1032.84 309.078C1033.43 309.846 1034.08 310.517 1034.79 311.09C1035.51 311.65 1036.28 312.092 1037.1 312.418C1037.92 312.73 1038.77 312.887 1039.66 312.887C1040.68 312.887 1041.51 312.672 1042.12 312.242C1042.74 311.799 1043.05 311.174 1043.05 310.367C1043.05 309.846 1042.88 309.417 1042.53 309.078C1042.19 308.727 1041.73 308.421 1041.16 308.16C1040.6 307.9 1039.96 307.665 1039.25 307.457C1038.53 307.249 1037.79 307.021 1037.04 306.773C1036.28 306.526 1035.55 306.24 1034.83 305.914C1034.12 305.576 1033.47 305.159 1032.9 304.664C1032.34 304.156 1031.88 303.544 1031.53 302.828C1031.19 302.099 1031.02 301.22 1031.02 300.191C1031.02 299.306 1031.15 298.538 1031.41 297.887C1031.67 297.236 1032.01 296.689 1032.43 296.246C1032.86 295.79 1033.33 295.426 1033.86 295.152C1034.39 294.866 1034.92 294.651 1035.46 294.508C1035.99 294.352 1036.5 294.247 1036.98 294.195C1037.46 294.143 1037.87 294.117 1038.21 294.117ZM1081.77 293.922C1081.77 295.12 1081.59 296.129 1081.24 296.949C1080.89 297.77 1080.42 298.447 1079.83 298.98C1079.25 299.514 1078.58 299.931 1077.82 300.23C1077.07 300.53 1076.29 300.745 1075.5 300.875C1076.5 301.24 1077.31 301.702 1077.94 302.262C1078.58 302.822 1079.07 303.408 1079.42 304.02C1079.79 304.618 1080.03 305.211 1080.16 305.797C1080.29 306.37 1080.36 306.852 1080.36 307.242C1080.36 308.219 1080.22 309.072 1079.93 309.801C1079.64 310.53 1079.25 311.155 1078.76 311.676C1078.28 312.197 1077.71 312.626 1077.06 312.965C1076.41 313.303 1075.71 313.577 1074.97 313.785C1074.24 313.98 1073.48 314.117 1072.7 314.195C1071.93 314.273 1071.19 314.312 1070.46 314.312C1070.21 314.312 1069.96 314.306 1069.7 314.293C1069.45 314.293 1069.14 314.28 1068.76 314.254C1068.38 314.241 1067.9 314.215 1067.33 314.176C1066.77 314.137 1066.05 314.085 1065.16 314.02C1064.28 313.954 1063.2 313.876 1061.94 313.785C1060.68 313.681 1059.17 313.564 1057.41 313.434L1062.14 310.523L1063.52 289.879L1058.41 286.559C1060.82 286.585 1062.92 286.611 1064.73 286.637C1066.56 286.663 1068.09 286.689 1069.34 286.715C1070.8 286.741 1072.05 286.767 1073.09 286.793C1074.11 286.793 1075.13 286.949 1076.16 287.262C1077.2 287.561 1078.13 288.01 1078.95 288.609C1079.79 289.208 1080.46 289.957 1080.98 290.855C1081.51 291.741 1081.77 292.763 1081.77 293.922ZM1076.61 294.039C1076.61 293.922 1076.59 293.72 1076.55 293.434C1076.52 293.134 1076.43 292.802 1076.28 292.438C1076.13 292.06 1075.91 291.669 1075.59 291.266C1075.28 290.849 1074.85 290.471 1074.29 290.133C1073.73 289.794 1073.02 289.514 1072.16 289.293C1071.31 289.059 1070.27 288.935 1069.05 288.922C1068.4 288.922 1067.76 288.961 1067.14 289.039V299.84C1067.48 299.866 1067.81 299.879 1068.15 299.879C1068.49 299.879 1068.79 299.879 1069.05 299.879C1070.3 299.879 1071.36 299.755 1072.21 299.508C1073.07 299.26 1073.78 298.941 1074.34 298.551C1074.9 298.16 1075.33 297.737 1075.63 297.281C1075.95 296.812 1076.17 296.363 1076.32 295.934C1076.46 295.491 1076.54 295.1 1076.57 294.762C1076.6 294.423 1076.61 294.182 1076.61 294.039ZM1069.17 301.969C1068.88 301.969 1068.56 301.969 1068.19 301.969C1067.83 301.969 1067.48 301.982 1067.14 302.008V311.402C1067.72 311.507 1068.26 311.578 1068.76 311.617C1069.25 311.656 1069.75 311.676 1070.24 311.676C1070.91 311.676 1071.56 311.604 1072.21 311.461C1072.88 311.305 1073.47 311.044 1073.99 310.68C1074.53 310.302 1074.96 309.801 1075.28 309.176C1075.61 308.551 1075.77 307.77 1075.77 306.832C1075.77 306.35 1075.66 305.823 1075.44 305.25C1075.22 304.677 1074.85 304.15 1074.34 303.668C1073.84 303.186 1073.16 302.783 1072.31 302.457C1071.47 302.132 1070.42 301.969 1069.17 301.969ZM1088.15 306.832C1088.32 307.561 1088.55 308.277 1088.84 308.98C1089.12 309.671 1089.47 310.289 1089.89 310.836C1090.31 311.383 1090.79 311.826 1091.34 312.164C1091.88 312.503 1092.5 312.672 1093.19 312.672C1094.1 312.672 1094.9 312.483 1095.57 312.105C1096.25 311.728 1096.8 311.253 1097.23 310.68C1097.66 310.094 1097.96 309.456 1098.13 308.766C1098.3 308.062 1098.33 307.392 1098.23 306.754C1098.6 306.897 1098.89 307.086 1099.13 307.32C1099.38 307.555 1099.57 307.815 1099.7 308.102C1099.84 308.375 1099.94 308.661 1099.99 308.961C1100.04 309.247 1100.07 309.527 1100.07 309.801C1100.07 310.426 1099.88 311.031 1099.52 311.617C1099.15 312.19 1098.64 312.704 1097.98 313.16C1097.33 313.603 1096.55 313.961 1095.65 314.234C1094.75 314.508 1093.77 314.645 1092.7 314.645C1091.27 314.645 1089.99 314.365 1088.86 313.805C1087.74 313.245 1086.79 312.49 1086 311.539C1085.22 310.576 1084.62 309.449 1084.21 308.16C1083.79 306.871 1083.58 305.497 1083.58 304.039C1083.58 302.555 1083.79 301.188 1084.21 299.938C1084.62 298.674 1085.24 297.6 1086.04 296.715C1086.86 295.829 1087.87 295.159 1089.05 294.703C1090.24 294.247 1091.6 294.065 1093.15 294.156C1094.22 294.234 1095.2 294.54 1096.1 295.074C1097 295.608 1097.78 296.298 1098.45 297.145C1099.12 297.978 1099.66 298.935 1100.07 300.016C1100.48 301.096 1100.74 302.223 1100.83 303.395L1088.15 306.832ZM1087.78 303.688C1087.78 303.87 1087.78 304.052 1087.78 304.234C1087.78 304.404 1087.79 304.579 1087.82 304.762L1096.39 301.637C1096.11 300.699 1095.78 299.898 1095.42 299.234C1095.07 298.557 1094.7 298.004 1094.3 297.574C1093.91 297.145 1093.52 296.832 1093.11 296.637C1092.72 296.428 1092.35 296.324 1091.98 296.324C1091.43 296.324 1090.95 296.428 1090.54 296.637C1090.12 296.845 1089.75 297.132 1089.44 297.496C1089.14 297.848 1088.88 298.264 1088.66 298.746C1088.45 299.228 1088.28 299.742 1088.15 300.289C1088.02 300.836 1087.92 301.402 1087.86 301.988C1087.81 302.561 1087.78 303.128 1087.78 303.688ZM1118.82 296.93C1118.95 297.997 1119.04 299.156 1119.11 300.406C1119.19 301.656 1119.21 302.939 1119.19 304.254C1119.16 305.569 1119.08 306.891 1118.93 308.219C1118.79 309.534 1118.56 310.803 1118.25 312.027C1117.94 313.238 1117.53 314.371 1117.04 315.426C1116.54 316.48 1115.93 317.392 1115.2 318.16C1114.49 318.941 1113.64 319.553 1112.66 319.996C1111.7 320.452 1110.59 320.68 1109.32 320.68C1107.89 320.68 1106.36 320.322 1104.73 319.605L1103.29 322.477L1101.3 314.801C1101.88 315.569 1102.48 316.188 1103.09 316.656C1103.72 317.125 1104.31 317.483 1104.87 317.73C1105.44 317.991 1105.96 318.16 1106.43 318.238C1106.92 318.316 1107.31 318.355 1107.61 318.355C1108.67 318.355 1109.62 318.017 1110.46 317.34C1111.3 316.676 1112.05 315.751 1112.68 314.566C1111.64 313.473 1110.63 312.288 1109.64 311.012C1108.66 309.723 1107.77 308.355 1106.98 306.91C1106.19 305.452 1105.52 303.922 1104.97 302.32C1104.43 300.719 1104.09 299.052 1103.93 297.32L1100.73 295.602L1109.77 294.312L1108.09 296.598C1108.43 299.215 1109.08 301.786 1110.05 304.312C1111.01 306.839 1112.27 309.404 1113.82 312.008C1114.15 311.031 1114.45 309.977 1114.7 308.844C1114.96 307.711 1115.17 306.513 1115.34 305.25C1115.52 303.987 1115.66 302.678 1115.75 301.324C1115.84 299.957 1115.9 298.57 1115.93 297.164L1113.02 294.312C1114.1 294.391 1115.05 294.462 1115.87 294.527C1116.7 294.592 1117.42 294.651 1118.04 294.703C1118.65 294.742 1119.16 294.781 1119.58 294.82C1120.01 294.846 1120.36 294.866 1120.63 294.879C1121.27 294.931 1121.65 294.957 1121.77 294.957L1118.82 296.93ZM1140.09 301.832C1140.09 302.522 1140.05 303.264 1139.97 304.059C1139.89 304.853 1139.77 305.66 1139.62 306.48C1139.47 307.301 1139.3 308.108 1139.09 308.902C1138.89 309.684 1138.68 310.406 1138.45 311.07L1142.61 314L1135.24 313.688L1135.69 311.285C1134.91 312.262 1134.01 313.01 1132.98 313.531C1131.96 314.039 1130.78 314.345 1129.44 314.449C1128.35 314.527 1127.39 314.449 1126.57 314.215C1125.76 313.993 1125.09 313.648 1124.54 313.18C1124.01 312.698 1123.61 312.112 1123.35 311.422C1123.09 310.719 1122.96 309.938 1122.96 309.078C1122.96 308.284 1123.15 307.516 1123.54 306.773C1123.93 306.018 1124.49 305.354 1125.22 304.781C1125.96 304.208 1126.87 303.753 1127.94 303.414C1129.01 303.062 1130.22 302.887 1131.57 302.887C1132.2 302.887 1132.91 302.945 1133.72 303.062C1134.54 303.18 1135.31 303.427 1136.04 303.805C1135.98 303.01 1135.85 302.203 1135.67 301.383C1135.5 300.549 1135.25 299.794 1134.91 299.117C1134.57 298.44 1134.13 297.893 1133.58 297.477C1133.05 297.047 1132.38 296.832 1131.57 296.832C1130.88 296.832 1130.21 296.975 1129.56 297.262C1128.91 297.548 1128.3 297.958 1127.72 298.492C1127.16 299.026 1126.65 299.677 1126.2 300.445C1125.74 301.214 1125.36 302.079 1125.05 303.043L1123.41 293.473L1125.89 297.281C1126.5 296.526 1127.12 295.927 1127.74 295.484C1128.37 295.029 1128.99 294.684 1129.6 294.449C1130.22 294.202 1130.82 294.039 1131.39 293.961C1131.98 293.883 1132.54 293.844 1133.07 293.844C1134.08 293.896 1135 294.104 1135.85 294.469C1136.71 294.82 1137.45 295.335 1138.07 296.012C1138.7 296.676 1139.19 297.496 1139.54 298.473C1139.9 299.449 1140.09 300.569 1140.09 301.832ZM1136.04 308.082C1136.07 307.717 1136.09 307.366 1136.1 307.027C1136.11 306.689 1136.12 306.357 1136.12 306.031V305.797C1135.65 305.615 1135.18 305.478 1134.7 305.387C1134.23 305.283 1133.79 305.211 1133.39 305.172C1132.98 305.12 1132.64 305.094 1132.35 305.094C1132.08 305.081 1131.9 305.074 1131.8 305.074C1131.06 305.1 1130.42 305.237 1129.87 305.484C1129.32 305.732 1128.87 306.044 1128.5 306.422C1128.15 306.786 1127.89 307.197 1127.7 307.652C1127.53 308.108 1127.45 308.557 1127.45 309C1127.45 310.003 1127.69 310.764 1128.17 311.285C1128.67 311.793 1129.38 312.047 1130.32 312.047C1130.95 312.047 1131.54 311.936 1132.1 311.715C1132.66 311.493 1133.18 311.201 1133.66 310.836C1134.15 310.458 1134.6 310.035 1134.99 309.566C1135.39 309.085 1135.74 308.59 1136.04 308.082ZM1144.15 292.008L1146.16 295.406L1159.71 295.68L1149.83 311.285L1155.95 312.594L1159.64 308.648L1158.54 317.594L1156.94 314.566L1142.55 314.273L1155.07 298.434L1145.48 299.234L1144.15 301.871V292.008ZM1032.12 359.277L1010.11 360.156L1014.99 355.156L1016.36 337.168L1010.48 334.277L1031.39 332.793L1031.75 341.953L1028.11 335.449L1019.19 336.875L1019.48 346.113L1021.51 345.84L1025.55 340.488L1025.83 352.793L1022.31 347.754L1019.52 348.164L1019.75 356.23L1028.5 357.031L1031.79 348.848L1032.12 359.277ZM1041.08 364.609C1041.24 364.805 1041.46 365.007 1041.75 365.215C1042.03 365.423 1042.35 365.527 1042.68 365.527C1043.02 365.527 1043.3 365.404 1043.52 365.156C1043.76 364.909 1043.88 364.603 1043.88 364.238C1043.88 364.043 1043.81 363.887 1043.68 363.77C1043.56 363.665 1043.41 363.581 1043.23 363.516C1043.06 363.451 1042.87 363.405 1042.66 363.379C1042.46 363.366 1042.27 363.359 1042.12 363.359C1041.87 363.359 1041.7 363.359 1041.61 363.359C1041.53 363.372 1041.43 363.398 1041.32 363.438L1043.11 360.84C1042.1 360.684 1041.12 360.384 1040.18 359.941C1039.25 359.486 1038.43 358.945 1037.72 358.32L1034.75 362.285L1035.67 352.598C1036.09 353.483 1036.59 354.31 1037.18 355.078C1037.76 355.846 1038.41 356.517 1039.13 357.09C1039.85 357.65 1040.61 358.092 1041.43 358.418C1042.25 358.73 1043.11 358.887 1043.99 358.887C1045.02 358.887 1045.84 358.672 1046.45 358.242C1047.08 357.799 1047.39 357.174 1047.39 356.367C1047.39 355.846 1047.21 355.417 1046.86 355.078C1046.52 354.727 1046.07 354.421 1045.5 354.16C1044.94 353.9 1044.3 353.665 1043.58 353.457C1042.87 353.249 1042.13 353.021 1041.38 352.773C1040.62 352.526 1039.88 352.24 1039.17 351.914C1038.45 351.576 1037.81 351.159 1037.23 350.664C1036.67 350.156 1036.22 349.544 1035.87 348.828C1035.53 348.099 1035.36 347.22 1035.36 346.191C1035.36 345.306 1035.49 344.538 1035.75 343.887C1036.01 343.236 1036.35 342.689 1036.77 342.246C1037.2 341.79 1037.67 341.426 1038.19 341.152C1038.73 340.866 1039.26 340.651 1039.79 340.508C1040.33 340.352 1040.83 340.247 1041.32 340.195C1041.8 340.143 1042.21 340.117 1042.55 340.117C1043.04 340.117 1043.54 340.163 1044.05 340.254C1044.56 340.332 1045.05 340.456 1045.54 340.625C1046.03 340.781 1046.49 340.977 1046.92 341.211C1047.36 341.432 1047.76 341.68 1048.11 341.953L1051.32 338.008L1049.87 347.754C1049.71 347.077 1049.44 346.413 1049.05 345.762C1048.66 345.098 1048.17 344.505 1047.59 343.984C1047.01 343.464 1046.35 343.047 1045.59 342.734C1044.84 342.409 1044.01 342.246 1043.11 342.246C1042.62 342.246 1042.14 342.305 1041.69 342.422C1041.23 342.526 1040.83 342.702 1040.48 342.949C1040.14 343.197 1039.86 343.509 1039.66 343.887C1039.46 344.264 1039.36 344.714 1039.36 345.234C1039.36 345.859 1039.53 346.367 1039.87 346.758C1040.22 347.148 1040.68 347.48 1041.24 347.754C1041.8 348.014 1042.44 348.242 1043.15 348.438C1043.87 348.62 1044.6 348.815 1045.36 349.023C1046.11 349.232 1046.85 349.479 1047.57 349.766C1048.28 350.039 1048.92 350.397 1049.48 350.84C1050.04 351.283 1050.49 351.836 1050.83 352.5C1051.18 353.151 1051.36 353.958 1051.36 354.922C1051.36 356.003 1051.14 356.927 1050.71 357.695C1050.29 358.451 1049.75 359.076 1049.09 359.57C1048.43 360.052 1047.69 360.404 1046.88 360.625C1046.08 360.846 1045.29 360.957 1044.52 360.957H1044.32L1043.68 362.363C1043.88 362.363 1044.09 362.409 1044.32 362.5C1044.56 362.591 1044.78 362.728 1044.99 362.91C1045.21 363.105 1045.39 363.346 1045.54 363.633C1045.68 363.932 1045.75 364.284 1045.75 364.688C1045.75 365.534 1045.5 366.165 1044.99 366.582C1044.49 366.999 1043.86 367.207 1043.07 367.207C1042.84 367.207 1042.59 367.161 1042.33 367.07C1042.07 366.979 1041.82 366.849 1041.57 366.68C1041.34 366.523 1041.12 366.335 1040.93 366.113C1040.74 365.905 1040.61 365.684 1040.52 365.449L1041.08 364.609ZM1069.79 342.93C1069.92 343.997 1070.02 345.156 1070.09 346.406C1070.16 347.656 1070.19 348.939 1070.16 350.254C1070.14 351.569 1070.05 352.891 1069.91 354.219C1069.77 355.534 1069.54 356.803 1069.23 358.027C1068.91 359.238 1068.51 360.371 1068.02 361.426C1067.52 362.48 1066.91 363.392 1066.18 364.16C1065.46 364.941 1064.62 365.553 1063.64 365.996C1062.68 366.452 1061.56 366.68 1060.3 366.68C1058.87 366.68 1057.34 366.322 1055.71 365.605L1054.27 368.477L1052.27 360.801C1052.86 361.569 1053.46 362.188 1054.07 362.656C1054.7 363.125 1055.29 363.483 1055.85 363.73C1056.42 363.991 1056.94 364.16 1057.41 364.238C1057.89 364.316 1058.28 364.355 1058.58 364.355C1059.65 364.355 1060.6 364.017 1061.43 363.34C1062.28 362.676 1063.02 361.751 1063.66 360.566C1062.62 359.473 1061.6 358.288 1060.61 357.012C1059.64 355.723 1058.75 354.355 1057.96 352.91C1057.16 351.452 1056.49 349.922 1055.95 348.32C1055.41 346.719 1055.07 345.052 1054.91 343.32L1051.71 341.602L1060.75 340.312L1059.07 342.598C1059.41 345.215 1060.06 347.786 1061.02 350.312C1061.99 352.839 1063.24 355.404 1064.79 358.008C1065.13 357.031 1065.42 355.977 1065.67 354.844C1065.93 353.711 1066.15 352.513 1066.32 351.25C1066.5 349.987 1066.64 348.678 1066.73 347.324C1066.82 345.957 1066.88 344.57 1066.9 343.164L1063.99 340.312C1065.07 340.391 1066.02 340.462 1066.84 340.527C1067.68 340.592 1068.4 340.651 1069.01 340.703C1069.62 340.742 1070.14 340.781 1070.55 340.82C1070.98 340.846 1071.34 340.866 1071.61 340.879C1072.25 340.931 1072.62 340.957 1072.74 340.957L1069.79 342.93ZM1091.06 347.832C1091.06 348.522 1091.02 349.264 1090.95 350.059C1090.87 350.853 1090.75 351.66 1090.59 352.48C1090.45 353.301 1090.27 354.108 1090.07 354.902C1089.87 355.684 1089.66 356.406 1089.42 357.07L1093.58 360L1086.22 359.688L1086.67 357.285C1085.89 358.262 1084.98 359.01 1083.95 359.531C1082.94 360.039 1081.76 360.345 1080.42 360.449C1079.32 360.527 1078.37 360.449 1077.55 360.215C1076.74 359.993 1076.06 359.648 1075.52 359.18C1074.98 358.698 1074.58 358.112 1074.32 357.422C1074.06 356.719 1073.93 355.938 1073.93 355.078C1073.93 354.284 1074.13 353.516 1074.52 352.773C1074.91 352.018 1075.47 351.354 1076.2 350.781C1076.94 350.208 1077.85 349.753 1078.91 349.414C1079.98 349.062 1081.19 348.887 1082.55 348.887C1083.17 348.887 1083.89 348.945 1084.7 349.062C1085.52 349.18 1086.29 349.427 1087.02 349.805C1086.95 349.01 1086.83 348.203 1086.65 347.383C1086.48 346.549 1086.23 345.794 1085.89 345.117C1085.55 344.44 1085.11 343.893 1084.56 343.477C1084.02 343.047 1083.35 342.832 1082.55 342.832C1081.86 342.832 1081.19 342.975 1080.54 343.262C1079.88 343.548 1079.27 343.958 1078.7 344.492C1078.14 345.026 1077.63 345.677 1077.18 346.445C1076.72 347.214 1076.34 348.079 1076.02 349.043L1074.38 339.473L1076.86 343.281C1077.48 342.526 1078.09 341.927 1078.72 341.484C1079.34 341.029 1079.96 340.684 1080.57 340.449C1081.2 340.202 1081.8 340.039 1082.37 339.961C1082.96 339.883 1083.52 339.844 1084.05 339.844C1085.05 339.896 1085.98 340.104 1086.82 340.469C1087.68 340.82 1088.43 341.335 1089.05 342.012C1089.68 342.676 1090.16 343.496 1090.52 344.473C1090.88 345.449 1091.06 346.569 1091.06 347.832ZM1087.02 354.082C1087.05 353.717 1087.07 353.366 1087.08 353.027C1087.09 352.689 1087.1 352.357 1087.1 352.031V351.797C1086.63 351.615 1086.15 351.478 1085.67 351.387C1085.2 351.283 1084.77 351.211 1084.36 351.172C1083.96 351.12 1083.61 351.094 1083.33 351.094C1083.05 351.081 1082.87 351.074 1082.78 351.074C1082.04 351.1 1081.39 351.237 1080.85 351.484C1080.3 351.732 1079.85 352.044 1079.48 352.422C1079.13 352.786 1078.86 353.197 1078.68 353.652C1078.51 354.108 1078.43 354.557 1078.43 355C1078.43 356.003 1078.67 356.764 1079.15 357.285C1079.64 357.793 1080.36 358.047 1081.3 358.047C1081.92 358.047 1082.51 357.936 1083.07 357.715C1083.63 357.493 1084.15 357.201 1084.64 356.836C1085.13 356.458 1085.57 356.035 1085.96 355.566C1086.37 355.085 1086.72 354.59 1087.02 354.082Z" fill="black"/>
</g>
</g>
<defs>
<linearGradient id="paint0_linear_138_52" x1="-10" y1="418" x2="-10" y2="98.3606" gradientUnits="userSpaceOnUse">
<stop stop-color="#C3ACD0"/>
<stop offset="1" stop-color="#674188"/>
</linearGradient>
<clipPath id="clip0_138_52">
<rect width="1334" height="418" fill="white"/>
</clipPath>
<clipPath id="clip1_138_52">
<rect width="1334" height="390" fill="white" transform="translate(-10 28)"/>
</clipPath>
<clipPath id="clip2_138_52">
<rect width="1200" height="377" fill="white" transform="translate(44 41)"/>
</clipPath>
</defs>
</svg>
