<?xml version="1.0" standalone="no"?>
<svg xmlns:xlink="http://www.w3.org/1999/xlink" id="wave" style="transform:rotate(0deg); transition: 0.3s" viewBox="0 0 1440 170" version="1.1" xmlns="http://www.w3.org/2000/svg"><defs><linearGradient id="sw-gradient-0" x1="0" x2="0" y1="1" y2="0"><stop stop-color="rgba(195, 172, 208, 1)" offset="0%"/><stop stop-color="rgba(103, 65, 136, 1)" offset="100%"/></linearGradient></defs><path style="transform:translate(0, 0px); opacity:1" fill="url(#sw-gradient-0)" d="M0,68L120,59.5C240,51,480,34,720,31.2C960,28,1200,40,1440,48.2C1680,57,1920,62,2160,62.3C2400,62,2640,57,2880,51C3120,45,3360,40,3600,42.5C3840,45,4080,57,4320,73.7C4560,91,4800,113,5040,110.5C5280,108,5520,79,5760,79.3C6000,79,6240,108,6480,119C6720,130,6960,125,7200,119C7440,113,7680,108,7920,107.7C8160,108,8400,113,8640,102C8880,91,9120,62,9360,65.2C9600,68,9840,102,10080,99.2C10320,96,10560,57,10800,56.7C11040,57,11280,96,11520,99.2C11760,102,12000,68,12240,68C12480,68,12720,102,12960,107.7C13200,113,13440,91,13680,90.7C13920,91,14160,113,14400,127.5C14640,142,14880,147,15120,136C15360,125,15600,96,15840,73.7C16080,51,16320,34,16560,45.3C16800,57,17040,96,17160,116.2L17280,136L17280,170L17160,170C17040,170,16800,170,16560,170C16320,170,16080,170,15840,170C15600,170,15360,170,15120,170C14880,170,14640,170,14400,170C14160,170,13920,170,13680,170C13440,170,13200,170,12960,170C12720,170,12480,170,12240,170C12000,170,11760,170,11520,170C11280,170,11040,170,10800,170C10560,170,10320,170,10080,170C9840,170,9600,170,9360,170C9120,170,8880,170,8640,170C8400,170,8160,170,7920,170C7680,170,7440,170,7200,170C6960,170,6720,170,6480,170C6240,170,6000,170,5760,170C5520,170,5280,170,5040,170C4800,170,4560,170,4320,170C4080,170,3840,170,3600,170C3360,170,3120,170,2880,170C2640,170,2400,170,2160,170C1920,170,1680,170,1440,170C1200,170,960,170,720,170C480,170,240,170,120,170L0,170Z"/></svg>