<?xml version="1.0" encoding="UTF-8"?>
<svg id="Layer_1" data-name="Layer 1" xmlns="http://www.w3.org/2000/svg" viewBox="0 0 240.94 257.16">
  <defs>
    <style>
      .cls-1 {
        fill: none;
        stroke: #231f20;
        stroke-miterlimit: 10;
        stroke-width: 5px;
      }

      .cls-2 {
        fill: #231f20;
        stroke-width: 0px;
      }
    </style>
  </defs>
  <ellipse class="cls-1" cx="120.47" cy="128.58" rx="117.97" ry="126.08"/>
  <path class="cls-2" d="M86.22,24.77c-5.52,8.95-11.05,17.9-16.57,26.85-.65,1.05-.32,2.5.64,3.23.9.67,2.51.8,3.28-.2,11.52-14.81,24.97-28.14,39.96-39.42l-3.67-2.82c-7.13,19.04-15.36,37.66-24.65,55.75-2.63,5.11-5.34,10.18-8.12,15.2-.54.97-.41,2.23.39,3.03.72.72,2.16,1.05,3.03.39,3.38-2.56,6.75-5.13,10.13-7.69l-3.67-2.82c-5.27,12.59-11.01,24.99-17.17,37.17-.56,1.11-.39,2.45.64,3.23.9.67,2.51.8,3.28-.2,10.5-13.44,21.84-26.21,33.95-38.22,3.45-3.42,6.97-6.78,10.54-10.08l-4.18-2.43c-3.23,9.94-6.46,19.89-9.7,29.83-.65,1.99,1.88,4.08,3.67,2.82,6.72-4.72,13.44-9.44,20.17-14.16l-3.67-2.82c-2.85,10.59-5.71,21.19-8.56,31.78-.53,1.96,1.83,4.14,3.67,2.82,10.58-7.53,21.16-15.05,31.74-22.58l-3.42-3.42c-7.09,16.2-14.19,32.41-21.28,48.61-.45,1.04-.46,2.18.39,3.03.74.74,2.12,1.01,3.03.39,7.73-5.33,15.46-10.65,23.19-15.98l-3.76-2.16c-.59,4.56.43,9.22,2.74,13.18.64,1.11,2.3,1.66,3.42.9,3.87-2.65,7.74-5.3,11.61-7.95l-3.76-2.16.06,7.58c.02,1.91,2.11,3.09,3.76,2.16,3.9-2.2,7.8-4.4,11.7-6.61l-3.42-3.42c-3.35,6.9-6.7,13.8-10.05,20.7l4.66,1.26c-.02-.46-.08-.32-.19.43l-.44.47c-.26.09-.25.09.04,0-.22.03-.24.04-.06.04.08.18-.06-.13-.25-.15-.29-.02.01-.34-.04.02-.25,1.67-.84,3.13-1.47,4.71-1.54,3.84-3.09,7.68-4.63,11.51-3.09,7.68-6.18,15.35-9.26,23.03l3.67-1.49c-24.61-10.4-48.51-22.45-71.49-36.09-6.55-3.88-13.01-7.9-19.4-12.03l-1.26,4.66c17.22,1.2,34.23,4.93,50.4,10.97,4.59,1.72,9.1,3.63,13.53,5.72,1.22.58,2.7.34,3.42-.9.64-1.09.33-2.84-.9-3.42-16.21-7.67-33.48-13.02-51.22-15.69-5.05-.76-10.13-1.33-15.23-1.68-2.62-.18-3.2,3.4-1.26,4.66,22.43,14.51,45.84,27.5,70.03,38.83,6.89,3.23,13.85,6.32,20.86,9.28,1.61.68,3.01.14,3.67-1.49,3.89-9.67,7.78-19.34,11.67-29.01.99-2.46,2-4.9,2.96-7.37.82-2.1,1.38-4.46.31-6.58-.95-1.9-3.1-2.79-5.15-2.39-1.87.37-3.5,1.93-3.32,3.96.1,1.11.71,2.1,1.84,2.41,1.01.28,2.35-.16,2.82-1.15,3.35-6.9,6.7-13.8,10.05-20.7,1.06-2.19-1.13-4.71-3.42-3.42-3.9,2.2-7.8,4.4-11.7,6.61l3.76,2.16-.06-7.58c-.02-1.79-2.15-3.26-3.76-2.16-3.87,2.65-7.74,5.3-11.61,7.95l3.42.9c-1.9-3.27-2.55-6.91-2.06-10.66.24-1.85-2.31-3.16-3.76-2.16-7.73,5.33-15.46,10.65-23.19,15.98l3.42,3.42c7.09-16.2,14.19-32.41,21.28-48.61.45-1.04.46-2.18-.39-3.03-.74-.74-2.14-1.03-3.03-.39-10.58,7.53-21.16,15.05-31.74,22.58l3.67,2.82c2.85-10.59,5.71-21.19,8.56-31.78.53-1.97-1.82-4.12-3.67-2.82-6.72,4.72-13.44,9.44-20.17,14.16l3.67,2.82c3.23-9.94,6.46-19.89,9.7-29.83.81-2.49-2.44-4.04-4.18-2.43-12.53,11.57-24.33,23.91-35.31,36.97-3.13,3.72-6.19,7.5-9.18,11.33l3.93,3.03c6.35-12.57,12.23-25.38,17.67-38.37.81-1.94-2-4.1-3.67-2.82l-10.13,7.69,3.42,3.42c10.04-18.09,19-36.76,26.89-55.88,2.22-5.39,4.35-10.81,6.39-16.26.73-1.95-1.95-4.12-3.67-2.82-11.94,8.98-22.97,19.1-32.83,30.33-2.81,3.21-5.53,6.5-8.15,9.87l3.93,3.03c5.52-8.95,11.05-17.9,16.57-26.85,1.69-2.75-2.63-5.26-4.32-2.52h0Z"/>
  <path class="cls-2" d="M162.99,59.63c11.69,12.02,22.06,25.26,30.91,39.5,4.42,7.11,8.45,14.46,12.08,22.01s7.4,15.88,6.5,24.55c-.75,7.26-5.11,13.7-10.08,18.8-5.35,5.49-11.73,9.93-18.3,13.82-13.56,8.01-28.55,13.18-43.82,16.81s-31.3,5.83-47.1,7.71c-1.99.24-3.98.47-5.97.7-1.34.16-2.5,1.04-2.5,2.5,0,1.23,1.15,2.66,2.5,2.5,16.52-1.92,33.06-3.92,49.33-7.44,15.98-3.45,31.76-8.43,46.17-16.25,7.06-3.83,13.89-8.32,19.9-13.65s11.08-11.62,13.56-19.19c2.83-8.65.94-17.58-2.45-25.76s-7.5-16.01-11.92-23.62c-8.69-14.98-19.04-29.02-30.78-41.75-1.48-1.61-2.98-3.19-4.51-4.76-2.25-2.31-5.78,1.23-3.54,3.54h0Z"/>
</svg>